<?xml version="1.0" encoding="UTF-8" standalone="no"?>
<!DOCTYPE svg PUBLIC "-//W3C//DTD SVG 1.1//EN"
 "http://www.w3.org/Graphics/SVG/1.1/DTD/svg11.dtd">
<!-- Generated by graphviz version 2.38.0 (20140413.2041)
 -->
<!-- Title: D Pages: 1 -->
<svg width="348pt" height="134pt"
 viewBox="0.00 0.00 348.39 133.74" xmlns="http://www.w3.org/2000/svg" xmlns:xlink="http://www.w3.org/1999/xlink">
<g id="graph0" class="graph" transform="scale(1 1) rotate(0) translate(4 129.74)">
<title>D</title>
<polygon fill="white" stroke="none" points="-4,4 -4,-129.74 344.393,-129.74 344.393,4 -4,4"/>
<!-- test -->
<g id="node1" class="node"><title>test</title>
<ellipse fill="none" stroke="black" cx="75.3933" cy="-98.8701" rx="75.2868" ry="18"/>
<text text-anchor="middle" x="75.3933" y="-95.1701" font-family="Times,serif" font-size="14.00">Optical inspection</text>
</g>
<!-- A -->
<g id="node2" class="node"><title>A</title>
<ellipse fill="none" stroke="black" cx="223.393" cy="-98.8701" rx="54.3945" ry="26.7407"/>
<text text-anchor="middle" x="223.393" y="-102.67" font-family="Times,serif" font-size="14.00">Simulation</text>
<text text-anchor="middle" x="223.393" y="-87.6701" font-family="Times,serif" font-size="14.00"> Nyion</text>
</g>
<!-- B -->
<g id="node3" class="node"><title>B</title>
<ellipse fill="none" stroke="black" cx="114.393" cy="-18" rx="45.4919" ry="18"/>
<text text-anchor="middle" x="114.393" y="-14.3" font-family="Times,serif" font-size="14.00">Hardware</text>
</g>
<!-- A&#45;&gt;B -->
<g id="edge1" class="edge"><title>A&#45;&gt;B</title>
<path fill="none" stroke="black" d="M185.075,-70.1435C171.437,-60.2755 156.313,-49.3319 143.566,-40.1085"/>
<polygon fill="black" stroke="black" points="183.455,-73.2919 193.609,-76.3185 187.559,-67.6207 183.455,-73.2919"/>
<polygon fill="black" stroke="black" points="145.321,-37.0587 135.168,-34.0321 141.218,-42.7299 145.321,-37.0587"/>
</g>
<!-- C -->
<g id="node4" class="node"><title>C</title>
<ellipse fill="none" stroke="black" cx="223.393" cy="-18" rx="45.4919" ry="18"/>
<text text-anchor="middle" x="223.393" y="-14.3" font-family="Times,serif" font-size="14.00">Firmware</text>
</g>
<!-- A&#45;&gt;C -->
<g id="edge2" class="edge"><title>A&#45;&gt;C</title>
<path fill="none" stroke="black" d="M223.393,-71.6075C223.393,-63.5064 223.393,-54.5675 223.393,-46.3924"/>
<polygon fill="black" stroke="black" points="226.893,-46.22 223.393,-36.22 219.893,-46.2201 226.893,-46.22"/>
</g>
<!-- D -->
<g id="node5" class="node"><title>D</title>
<ellipse fill="none" stroke="black" cx="313.393" cy="-18" rx="27" ry="18"/>
<text text-anchor="middle" x="313.393" y="-14.3" font-family="Times,serif" font-size="14.00">D</text>
</g>
<!-- A&#45;&gt;D -->
<g id="edge3" class="edge"><title>A&#45;&gt;D</title>
<path fill="none" stroke="black" d="M249.425,-75.0576C262.201,-63.8616 277.474,-50.4776 289.891,-39.5955"/>
<polygon fill="black" stroke="black" points="292.37,-42.0768 297.585,-32.8538 287.757,-36.8123 292.37,-42.0768"/>
</g>
</g>
</svg>
