%
M48
M72
T01C0.0240
T02C0.0290
T03C0.0320
T04C0.0400
T05C0.0470
%
T01
X6650Y7730
X7150Y7730
X8900Y8730
X9400Y8730
X9150Y9730
X9150Y10230
X10900Y11480
X8400Y12980
X7650Y12230
X7150Y11980
X6650Y13730
X8650Y15230
X7900Y15980
X7400Y15980
X9650Y15730
X13400Y16230
X13900Y16980
X13900Y19480
X13900Y21980
X10150Y23480
X9900Y24980
X8150Y23730
X8650Y21230
X8400Y20730
X6900Y21230
X5400Y19980
X14400Y11480
X14900Y11480
X16400Y9480
X19400Y7730
X5400Y9730
T02
X9680Y16570
X9680Y17630
X9680Y18690
X9530Y22170
X9530Y23230
X9530Y24290
T03
X6200Y24080
X5700Y23330
X5200Y24080
X5200Y22230
X5700Y21480
X6200Y22230
X6200Y18630
X5700Y17880
X5200Y18630
X5200Y16780
X5700Y16030
X6200Y16780
X6200Y12880
X5700Y12130
X5200Y12880
X10950Y13480
X12950Y13480
T04
X2150Y6980
X3150Y6980
X4150Y6980
X5150Y6980
X6150Y6980
X7150Y6980
X8150Y6980
X9150Y6980
X10650Y6980
X11650Y6980
X12650Y6980
X13650Y6980
X14650Y6980
X15650Y6980
X16650Y6980
X17650Y6980
X18650Y6980
X19650Y6980
X19550Y9230
X19550Y10230
X19550Y11230
X19550Y12380
X19550Y13380
X17200Y10630
X15200Y10630
X2150Y9530
X2150Y8530
X2200Y12880
X2150Y16780
X2150Y18630
X2100Y22230
X2100Y24130
X2150Y25980
X3150Y25980
X4150Y25980
X5150Y25980
X6150Y25980
X7150Y25980
X9150Y25980
X10150Y25980
X11150Y25980
X12150Y25980
X13150Y25980
X14150Y25980
X15150Y25980
X16150Y25980
T05
X18350Y25314
X18350Y23346
X18350Y21314
X18350Y19346
X18350Y17314
X18350Y15346
M30
