<?xml version="1.0" encoding="UTF-8" standalone="no"?>

<svg
	xmlns="http://www.w3.org/2000/svg" version="1.1"
	xmlns:freecad="http://www.freecadweb.org/wiki/index.php?title=Svg_Namespace"
	width="210mm"
	height="297mm"
	viewBox="0 0 210 297">
	<!-- Working space 20 10 200 287 -->
	<!-- Title block 20 227 200 287 -->
	<g>
		<rect
			id="drawing-border"
			style="fill:none;stroke:#000000;stroke-width:0.35;stroke-linecap:miter;stroke-miterlimit:4"
			width="180"
			height="277"
			x="20"
			y="10" />
			<!-- width-30, height-20 -->
		<g
			transform="translate(0,0)">
			<!-- A4 Portrait based for other formats width-210, height-297 -->
			<!--        page       rect   translation
			               w    h    rw   rh   tx   ty
			        A4-P  210  297  180  277    0    0
			        A3-L  420  297  390  277  210    0
			        A2-L  594  420  564  400  384  123
			        A1-L  841  594  811  574  631  297
			        A0-L 1189  841 1159  821  979  544
			-->
			<g
				id="titleblock-structure"
				style="fill:none;stroke:#000000;stroke-width:0.35;stroke-linecap:miter;stroke-miterlimit:4">
				<rect width="180" height="60" x="20" y="227" />
				<path d="m 20,239 h 180" />
				<path d="m 80,227 v 12" />
				<path d="m 140,239 v 48" />
				<path d="m 160,239 v 12" />
				<path d="m 180,239 v 12" />
				<path d="m 140,251 h 60" />
				<path d="m 140,275 h 60" />
				<path d="m 180,275 v 12" />
			</g>
			<g
				id="titleblock-text-non-editable"
				style="font-size:3px;text-anchor:start;fill:#000000;font-family:osifont"
				xml:space="preserve">
				<text x="21" y="230">Created by:</text>
				<text x="81" y="230">Title:</text>
				<text x="21" y="242">Supplementary information:</text>
				<text x="141" y="242">Size:</text>
				<text x="161" y="242">Sheet:</text>
				<text x="181" y="242">Scale:</text>
				<text x="141" y="254">Part number:</text>
				<text x="141" y="266">Drawing number:</text>
				<text x="141" y="278">Date:</text>
				<text x="181" y="278">Revision:</text>
			</g>
			<g
				id="titleblock-text-editable"
				style="font-size:5px;text-anchor:middle;fill:#000000;font-family:osifont"
				xml:space="preserve">
				<text freecad:editable="AUTHOR NAME" x="50" y="236"><tspan>Daniel Correia</tspan></text>
				<text freecad:editable="DRAWING TITLE" x="140" y="236"><tspan>Ion Printer HC Feedthrough</tspan></text>
				<text freecad:editable="SI-1" x="80" y="248"><tspan>Insulator and feedthrough must </tspan></text>
				<text freecad:editable="SI-2" x="80" y="255"><tspan>have a snug fit</tspan></text>
				<text freecad:editable="FreeCAD DRAWING" x="80" y="262"><tspan>Feedthroughs must be tapped </tspan></text>
				<text freecad:editable="SI-4" x="80" y="269"><tspan>1/4-20 on both ends</tspan></text>
				<text freecad:editable="SI-5" x="80" y="276"><tspan></tspan></text>
				<text freecad:editable="SI-6" x="80" y="283"><tspan></tspan></text>
				<text freecad:editable="FC-SI" x="150" y="248"><tspan></tspan></text>
				<text freecad:editable="FC-SH" x="170" y="248"><tspan>A4</tspan></text>
				<text freecad:editable="FC-SC" x="190" y="248"><tspan>X / Y</tspan></text>
				<text freecad:editable="PN" x="170" y="260"><tspan>1</tspan></text>
				<text freecad:editable="DN" x="170" y="272"><tspan>PN</tspan></text>
				<text freecad:editable="FC-DATE" x="160" y="284"><tspan>DN</tspan></text>
				<text freecad:editable="FC-REV" x="190" y="284"><tspan>DD/MM/YYYY</tspan></text>
			</g>
			<!-- Set display:none to hide FreeCAD Logo -->
			<g
				style="display:inline"
				id="freecad-logo"
				transform="translate(128.5,276)"
				fill-rule="evenodd"
				stroke="#000"
				stroke-width="0.35"
				fill="none">
					<path d="m0.1524 0.15254v8.8549h1.9744v-3.4652h1.396v-1.3661h-1.396v-1.4745h3.4391v-2.5441l-5.4135-0.005z"/>
					<path d="m7.7927 3.4504-0.50715-0.176-0.48387-1.2366-0.76115 0.04-0.34718 1.2787-0.4859 0.23269-1.2119-0.53015-0.51188 0.56882 0.65892 1.1485-0.18006 0.50567-1.2366 0.48387 0.044064 0.76263 1.2787 0.34718 0.23269 0.4859-0.53421 1.2104 0.56882 0.51188 1.1485-0.65891 0.50973 0.18155 0.4798 1.2351 0.7667-0.04258 0.34311-1.2802 0.4859-0.23269 1.2145 0.5357 0.51188-0.56882-0.65891-1.1485 0.17748-0.51122 1.2351-0.4798-0.03851-0.76521-1.2802-0.34311-0.23269-0.4859 0.53163-1.216-0.56881-0.51184zm-0.5715 1.2244 0.23576 0.13679 0.20426 0.18519 0.16353 0.22101 0.11763 0.24572 0.06916 0.26489 0.01146 0.27146-0.03921 0.27139-0.08948 0.25764-0.14234 0.23834-0.17964 0.20167-0.22101 0.16353-0.24572 0.11763-0.26489 0.06916-0.27295 0.01553-0.2719-0.04-0.2576-0.089-0.2383-0.143-0.2002-0.183-0.165-0.217-0.1177-0.246-0.0676-0.269-0.0156-0.273 0.039206-0.2714 0.089484-0.25764 0.14085-0.23427 0.18113-0.20574 0.22101-0.16352 0.24572-0.11763 0.26895-0.06768 0.27147-0.01146 0.27139 0.03921 0.25764 0.08948z"/>
			</g>
		</g>
	</g>
<g id="View"
   transform="rotate(0,76,200) translate(76,200) scale(1,1)"
  >
<g   stroke="rgb(0, 0, 0)"
   stroke-width="0.35"
   stroke-linecap="butt"
   stroke-linejoin="miter"
   fill="none"
   transform="scale(1,-1)"
  >
<circle cx ="73.66" cy ="148" r ="12" /><circle cx ="73.66" cy ="148" r ="17" /></g>
</g>



<g> 
  <line x1="132.660000" y1="54.000000" x2="132.660000" y2="75.651137" style="stroke:rgb(0,0,255);stroke-width:0.50" />
<line x1="166.660000" y1="54.000000" x2="166.660000" y2="75.651137" style="stroke:rgb(0,0,255);stroke-width:0.50" />
<line x1="132.660000" y1="74.651137" x2="166.660000" y2="74.651137" style="stroke:rgb(0,0,255);stroke-width:0.50" /> 
  <polygon points="166.660000,74.651137 163.660000,73.651137 162.660000,74.651137 163.660000,75.651137" style="fill:rgb(0,0,255);stroke:rgb(0,0,255);stroke-width:0" /><polygon points="132.660000,74.651137 135.660000,75.651137 136.660000,74.651137 135.660000,73.651137" style="fill:rgb(0,0,255);stroke:rgb(0,0,255);stroke-width:0" /> 
  <text x="149.660000" y="72.651137" font-family="inherit" font-size="3.6" fill="rgb(0,0,255)" text-anchor="middle" transform="rotate(0.000000 149.660000,72.651137)" >34</text> </g>


<g> 
  <line x1="137.660000" y1="50.000000" x2="137.660000" y2="25.591695" style="stroke:rgb(0,0,255);stroke-width:0.50" />
<line x1="161.660000" y1="50.000000" x2="161.660000" y2="25.591695" style="stroke:rgb(0,0,255);stroke-width:0.50" />
<line x1="137.660000" y1="26.591695" x2="161.660000" y2="26.591695" style="stroke:rgb(0,0,255);stroke-width:0.50" /> 
  <polygon points="161.660000,26.591695 158.660000,25.591695 157.660000,26.591695 158.660000,27.591695" style="fill:rgb(0,0,255);stroke:rgb(0,0,255);stroke-width:0" /><polygon points="137.660000,26.591695 140.660000,27.591695 141.660000,26.591695 140.660000,25.591695" style="fill:rgb(0,0,255);stroke:rgb(0,0,255);stroke-width:0" /> 
  <text x="149.660000" y="24.591695" font-family="inherit" font-size="3.6" fill="rgb(0,0,255)" text-anchor="middle" transform="rotate(0.000000 149.660000,24.591695)" >24</text> </g>


<g id="View001"
   transform="rotate(0,56,127) translate(56,127) scale(1,1)"
  >
<g   stroke="rgb(0, 0, 0)"
   stroke-width="0.35"
   stroke-linecap="butt"
   stroke-linejoin="miter"
   fill="none"
   transform="scale(1,-1)"
  >
<path id= "1" d=" M -5 61.66 L 60 61.66 " />
<path id= "2" d=" M -8 56.66 L -5 56.66 " />
<path id= "3" d=" M -20 61.66 L -8 61.66 " />
</g>
<g   stroke="rgb(0, 0, 0)"
   stroke-width="0.35"
   stroke-linecap="butt"
   stroke-linejoin="miter"
   fill="none"
   transform="scale(1,-1)"
  >
<path d="M60,85.66 L60,85.3591  L60,84.4716  L60,83.042  L60,81.1419  L60,78.8666  L60,76.3303  L60,73.66  L60,70.9897  L60,68.4534  L60,66.1781  L60,64.278  L60,62.8484  L60,61.9609  L60,61.66 " /><path id= "2" d=" M -5 85.66 L 60 85.66 " />
<path d="M-5,90.66 L-5,90.2338  L-5,88.9765  L-5,86.9511  L-5,84.2593  L-5,81.036  L-5,77.4429  L-5,73.66  L-5,69.8771  L-5,66.284  L-5,63.0607  L-5,60.3689  L-5,58.3435  L-5,57.0862  L-5,56.66 " /><path id= "4" d=" M -8 90.66 L -5 90.66 " />
<path d="M-8,90.66 L-8,90.2338  L-8,88.9765  L-8,86.9511  L-8,84.2593  L-8,81.036  L-8,77.4429  L-8,73.66  L-8,69.8771  L-8,66.284  L-8,63.0607  L-8,60.3689  L-8,58.3435  L-8,57.0862  L-8,56.66 " /><path id= "6" d=" M -20 85.66 L -8 85.66 " />
<path d="M-20,85.66 L-20,85.3591  L-20,84.4716  L-20,83.042  L-20,81.1419  L-20,78.8666  L-20,76.3303  L-20,73.66  L-20,70.9897  L-20,68.4534  L-20,66.1781  L-20,64.278  L-20,62.8484  L-20,61.9609  L-20,61.66 " /></g>
</g>



<g> 
  <line x1="36.000000" y1="67.039100" x2="36.000000" y2="75.916366" style="stroke:rgb(0,0,255);stroke-width:0.50" />
<line x1="116.000000" y1="67.039100" x2="116.000000" y2="75.916366" style="stroke:rgb(0,0,255);stroke-width:0.50" />
<line x1="36.000000" y1="74.916366" x2="116.000000" y2="74.916366" style="stroke:rgb(0,0,255);stroke-width:0.50" /> 
  <polygon points="116.000000,74.916366 113.000000,73.916366 112.000000,74.916366 113.000000,75.916366" style="fill:rgb(0,0,255);stroke:rgb(0,0,255);stroke-width:0" /><polygon points="36.000000,74.916366 39.000000,75.916366 40.000000,74.916366 39.000000,73.916366" style="fill:rgb(0,0,255);stroke:rgb(0,0,255);stroke-width:0" /> 
  <text x="76.000000" y="72.916366" font-family="inherit" font-size="3.6" fill="rgb(0,0,255)" text-anchor="middle" transform="rotate(0.000000 76.000000,72.916366)" >80</text> </g>


<g> 
  <line x1="51.000000" y1="34.766200" x2="51.000000" y2="26.813262" style="stroke:rgb(0,0,255);stroke-width:0.50" />
<line x1="116.000000" y1="39.640900" x2="116.000000" y2="26.813262" style="stroke:rgb(0,0,255);stroke-width:0.50" />
<line x1="51.000000" y1="27.813262" x2="116.000000" y2="27.813262" style="stroke:rgb(0,0,255);stroke-width:0.50" /> 
  <polygon points="116.000000,27.813262 113.000000,26.813262 112.000000,27.813262 113.000000,28.813262" style="fill:rgb(0,0,255);stroke:rgb(0,0,255);stroke-width:0" /><polygon points="51.000000,27.813262 54.000000,28.813262 55.000000,27.813262 54.000000,26.813262" style="fill:rgb(0,0,255);stroke:rgb(0,0,255);stroke-width:0" /> 
  <text x="83.500000" y="25.813262" font-family="inherit" font-size="3.6" fill="rgb(0,0,255)" text-anchor="middle" transform="rotate(0.000000 83.500000,25.813262)" >65</text> </g>


<g> 
  <line x1="36.000000" y1="40.528400" x2="36.000000" y2="26.813262" style="stroke:rgb(0,0,255);stroke-width:0.50" />
<line x1="48.000000" y1="36.023500" x2="48.000000" y2="26.813262" style="stroke:rgb(0,0,255);stroke-width:0.50" />
<line x1="36.000000" y1="27.813262" x2="48.000000" y2="27.813262" style="stroke:rgb(0,0,255);stroke-width:0.50" /> 
  <polygon points="48.000000,27.813262 45.000000,26.813262 44.000000,27.813262 45.000000,28.813262" style="fill:rgb(0,0,255);stroke:rgb(0,0,255);stroke-width:0" /><polygon points="36.000000,27.813262 39.000000,28.813262 40.000000,27.813262 39.000000,26.813262" style="fill:rgb(0,0,255);stroke:rgb(0,0,255);stroke-width:0" /> 
  <text x="42.000000" y="25.813262" font-family="inherit" font-size="3.6" fill="rgb(0,0,255)" text-anchor="middle" transform="rotate(0.000000 42.000000,25.813262)" >12</text> </g>


<g> 
  <line x1="48.000000" y1="34.340000" x2="48.000000" y2="19.187045" style="stroke:rgb(0,0,255);stroke-width:0.50" />
<line x1="51.000000" y1="36.023500" x2="51.000000" y2="19.187045" style="stroke:rgb(0,0,255);stroke-width:0.50" />
<line x1="48.000000" y1="20.187045" x2="51.000000" y2="20.187045" style="stroke:rgb(0,0,255);stroke-width:0.50" /> 
  <polygon points="51.000000,20.187045 54.000000,21.187045 55.000000,20.187045 54.000000,19.187045" style="fill:rgb(0,0,255);stroke:rgb(0,0,255);stroke-width:0" /><polygon points="48.000000,20.187045 45.000000,19.187045 44.000000,20.187045 45.000000,21.187045" style="fill:rgb(0,0,255);stroke:rgb(0,0,255);stroke-width:0" /> 
  <text x="49.500000" y="18.187045" font-family="inherit" font-size="3.6" fill="rgb(0,0,255)" text-anchor="middle" transform="rotate(0.000000 49.500000,18.187045)" >3</text> </g>


<g id="View002"
   transform="rotate(0,77,302) translate(77,302) scale(1,1)"
  >
<g   stroke="rgb(0, 0, 0)"
   stroke-width="0.35"
   stroke-linecap="butt"
   stroke-linejoin="miter"
   fill="none"
   transform="scale(1,-1)"
  >
<path id= "1" d=" M 50 143 L 50 153 " />
<path id= "2" d=" M 50 143 L 57.4119 143 " />
<path id= "3" d=" M 50 153 L 57.4119 153 " />
<path d="M57.4119 153 A17 17 0 0 1 57.4119 143" /><circle cx ="53.66" cy ="148" r ="1.5" /><path d="M57.4119 143 A17 17 0 0 1 89.9081 143" /><path id= "7" d=" M 57.4119 153 L 60.5833 153 " />
<path id= "8" d=" M 57.4119 143 L 60.5833 143 " />
<path d="M89.9081 153 A17 17 0 0 1 57.4119 153" /><path id= "10" d=" M 89.9081 143 L 97 143 " />
<path id= "11" d=" M 86.7367 143 L 89.9081 143 " />
<path id= "12" d=" M 86.7367 153 L 89.9081 153 " />
<path d="M87.66 148 A14 14 0 0 1 86.7367 153" /><circle cx ="73.66" cy ="148" r ="14" /><path id= "15" d=" M 89.9081 153 L 97 153 " />
<path id= "16" d=" M 97 143 L 97 153 " />
<path d="M90.66 148 A17 17 0 0 1 89.9081 153" /><path d="M89.9081 143 A17 17 0 0 1 90.66 148" /><circle cx ="93.66" cy ="148" r ="1.5" /><circle cx ="73.66" cy ="148" r ="12" /></g>
</g>



<g id="View003"
   transform="rotate(0,50,228) translate(50,228) scale(1,1)"
  >
<g   stroke="rgb(0, 0, 0)"
   stroke-width="0.35"
   stroke-linecap="butt"
   stroke-linejoin="miter"
   fill="none"
   transform="scale(1,-1)"
  >
<path id= "1" d=" M 0 59.66 L 28 59.66 " />
</g>
<g   stroke="rgb(0, 0, 0)"
   stroke-width="0.35"
   stroke-linecap="butt"
   stroke-linejoin="miter"
   fill="none"
   transform="scale(1,-1)"
  >
<path id= "1" d=" M -5 50 L 0 50 " />
<path id= "2" d=" M 0 50 L 0 57.4119 " />
<path d="M0,55.16 L0,55.1224  L0,55.0115  L0,54.8327  L0,54.5952  L0,54.3108  L0,53.9938  L0,53.66  L0,53.3262  L0,53.0092  L0,52.7248  L0,52.4873  L0,52.3085  L0,52.1976  L0,52.16 " /><path id= "4" d=" M -5 50 L -5 57.4119 " />
<path id= "5" d=" M -5 57.4119 L 0 57.4119 " />
<path d="M0,89.9081 L0,88.7367  L0,87.0686  L0,84.9588  L0,82.4768  L0,79.7044  L0,76.7328  L0,73.66  L0,70.5872  L0,67.6156  L0,64.8432  L0,62.3612  L0,60.2514  L0,58.5833  L0,57.4119 " /><path d="M-5,89.9081 L-5,88.7367  L-5,87.0686  L-5,84.9588  L-5,82.4768  L-5,79.7044  L-5,76.7328  L-5,73.66  L-5,70.5872  L-5,67.6156  L-5,64.8432  L-5,62.3612  L-5,60.2514  L-5,58.5833  L-5,57.4119 " /><path id= "8" d=" M -5 89.9081 L 0 89.9081 " />
<path id= "9" d=" M 0 87.66 L 28 87.66 " />
<path d="M28,87.66 L28,87.309  L28,86.2736  L28,84.6056  L28,82.3889  L28,79.7344  L28,76.7753  L28,73.66  L28,70.5447  L28,67.5856  L28,64.9311  L28,62.7144  L28,61.0464  L28,60.011  L28,59.66 " /><path id= "11" d=" M -5 89.9081 L -5 97 " />
<path id= "12" d=" M -5 97 L 0 97 " />
<path id= "13" d=" M 0 89.9081 L 0 97 " />
<path d="M0,95.16 L0,95.1224  L0,95.0115  L0,94.8327  L0,94.5952  L0,94.3108  L0,93.9938  L0,93.66  L0,93.3262  L0,93.0092  L0,92.7248  L0,92.4873  L0,92.3085  L0,92.1976  L0,92.16 " /></g>
</g>



<g> 
  <line x1="45.000000" y1="129.000000" x2="45.000000" y2="119.249989" style="stroke:rgb(0,0,255);stroke-width:0.50" />
<line x1="50.000000" y1="129.000000" x2="50.000000" y2="119.249989" style="stroke:rgb(0,0,255);stroke-width:0.50" />
<line x1="45.000000" y1="120.249989" x2="50.000000" y2="120.249989" style="stroke:rgb(0,0,255);stroke-width:0.50" /> 
  <polygon points="50.000000,120.249989 53.000000,121.249989 54.000000,120.249989 53.000000,119.249989" style="fill:rgb(0,0,255);stroke:rgb(0,0,255);stroke-width:0" /><polygon points="45.000000,120.249989 42.000000,119.249989 41.000000,120.249989 42.000000,121.249989" style="fill:rgb(0,0,255);stroke:rgb(0,0,255);stroke-width:0" /> 
  <text x="47.500000" y="118.249989" font-family="inherit" font-size="3.6" fill="rgb(0,0,255)" text-anchor="middle" transform="rotate(0.000000 47.500000,118.249989)" >5</text> </g>


<g> 
  <line x1="45.000000" y1="180.000000" x2="45.000000" y2="197.574464" style="stroke:rgb(0,0,255);stroke-width:0.50" />
<line x1="78.000000" y1="169.989000" x2="78.000000" y2="197.574464" style="stroke:rgb(0,0,255);stroke-width:0.50" />
<line x1="45.000000" y1="196.574464" x2="78.000000" y2="196.574464" style="stroke:rgb(0,0,255);stroke-width:0.50" /> 
  <polygon points="78.000000,196.574464 75.000000,195.574464 74.000000,196.574464 75.000000,197.574464" style="fill:rgb(0,0,255);stroke:rgb(0,0,255);stroke-width:0" /><polygon points="45.000000,196.574464 48.000000,197.574464 49.000000,196.574464 48.000000,195.574464" style="fill:rgb(0,0,255);stroke:rgb(0,0,255);stroke-width:0" /> 
  <text x="61.500000" y="194.574464" font-family="inherit" font-size="3.6" fill="rgb(0,0,255)" text-anchor="middle" transform="rotate(0.000000 61.500000,194.574464)" >33</text> </g>


<g> 
  <line x1="50.000000" y1="129.000000" x2="50.000000" y2="125.169030" style="stroke:rgb(0,0,255);stroke-width:0.50" />
<line x1="78.000000" y1="138.691000" x2="78.000000" y2="125.169030" style="stroke:rgb(0,0,255);stroke-width:0.50" />
<line x1="50.000000" y1="126.169030" x2="78.000000" y2="126.169030" style="stroke:rgb(0,0,255);stroke-width:0.50" /> 
  <polygon points="78.000000,126.169030 75.000000,125.169030 74.000000,126.169030 75.000000,127.169030" style="fill:rgb(0,0,255);stroke:rgb(0,0,255);stroke-width:0" /><polygon points="50.000000,126.169030 53.000000,127.169030 54.000000,126.169030 53.000000,125.169030" style="fill:rgb(0,0,255);stroke:rgb(0,0,255);stroke-width:0" /> 
  <text x="64.000000" y="124.169030" font-family="inherit" font-size="3.6" fill="rgb(0,0,255)" text-anchor="middle" transform="rotate(0.000000 64.000000,124.169030)" >28</text> </g>


<g> 
  <line x1="80.000000" y1="140.340000" x2="102.259227" y2="140.340000" style="stroke:rgb(0,0,255);stroke-width:0.50" />
<line x1="80.000000" y1="168.340000" x2="102.259227" y2="168.340000" style="stroke:rgb(0,0,255);stroke-width:0.50" />
<line x1="101.259227" y1="140.340000" x2="101.259227" y2="168.340000" style="stroke:rgb(0,0,255);stroke-width:0.50" /> 
  <polygon points="101.259227,168.340000 102.259227,165.340000 101.259227,164.340000 100.259227,165.340000" style="fill:rgb(0,0,255);stroke:rgb(0,0,255);stroke-width:0" /><polygon points="101.259227,140.340000 100.259227,143.340000 101.259227,144.340000 102.259227,143.340000" style="fill:rgb(0,0,255);stroke:rgb(0,0,255);stroke-width:0" /> 
  <text x="99.259227" y="154.340000" font-family="inherit" font-size="3.6" fill="rgb(0,0,255)" text-anchor="middle" transform="rotate(-90.000000 99.259227,154.340000)" >28</text> </g>


<g> 
  <line x1="127.000000" y1="161.000000" x2="127.000000" y2="184.500920" style="stroke:rgb(0,0,255);stroke-width:0.50" />
<line x1="174.000000" y1="161.000000" x2="174.000000" y2="184.500920" style="stroke:rgb(0,0,255);stroke-width:0.50" />
<line x1="127.000000" y1="183.500920" x2="174.000000" y2="183.500920" style="stroke:rgb(0,0,255);stroke-width:0.50" /> 
  <polygon points="174.000000,183.500920 171.000000,182.500920 170.000000,183.500920 171.000000,184.500920" style="fill:rgb(0,0,255);stroke:rgb(0,0,255);stroke-width:0" /><polygon points="127.000000,183.500920 130.000000,184.500920 131.000000,183.500920 130.000000,182.500920" style="fill:rgb(0,0,255);stroke:rgb(0,0,255);stroke-width:0" /> 
  <text x="150.500000" y="181.500920" font-family="inherit" font-size="3.6" fill="rgb(0,0,255)" text-anchor="middle" transform="rotate(0.000000 150.500000,181.500920)" >47</text> </g>


<g> 
  <line x1="138.660000" y1="152.000000" x2="138.660000" y2="121.279089" style="stroke:rgb(0,0,255);stroke-width:0.50" />
<line x1="162.660000" y1="152.000000" x2="162.660000" y2="121.279089" style="stroke:rgb(0,0,255);stroke-width:0.50" />
<line x1="138.660000" y1="122.279089" x2="162.660000" y2="122.279089" style="stroke:rgb(0,0,255);stroke-width:0.50" /> 
  <polygon points="162.660000,122.279089 159.660000,121.279089 158.660000,122.279089 159.660000,123.279089" style="fill:rgb(0,0,255);stroke:rgb(0,0,255);stroke-width:0" /><polygon points="138.660000,122.279089 141.660000,123.279089 142.660000,122.279089 141.660000,121.279089" style="fill:rgb(0,0,255);stroke:rgb(0,0,255);stroke-width:0" /> 
  <text x="150.660000" y="120.279089" font-family="inherit" font-size="3.6" fill="rgb(0,0,255)" text-anchor="middle" transform="rotate(0.000000 150.660000,120.279089)" >24</text> </g>


<g> 
  <line x1="130.660000" y1="152.000000" x2="130.660000" y2="106.796505" style="stroke:rgb(0,0,255);stroke-width:0.50" />
<line x1="170.660000" y1="152.000000" x2="170.660000" y2="106.796505" style="stroke:rgb(0,0,255);stroke-width:0.50" />
<line x1="130.660000" y1="107.796505" x2="170.660000" y2="107.796505" style="stroke:rgb(0,0,255);stroke-width:0.50" /> 
  <polygon points="170.660000,107.796505 167.660000,106.796505 166.660000,107.796505 167.660000,108.796505" style="fill:rgb(0,0,255);stroke:rgb(0,0,255);stroke-width:0" /><polygon points="130.660000,107.796505 133.660000,108.796505 134.660000,107.796505 133.660000,106.796505" style="fill:rgb(0,0,255);stroke:rgb(0,0,255);stroke-width:0" /> 
  <text x="150.660000" y="105.796505" font-family="inherit" font-size="3.6" fill="rgb(0,0,255)" text-anchor="middle" transform="rotate(0.000000 150.660000,105.796505)" >40</text> </g>


<g> 
  <line x1="46.000000" y1="36.340000" x2="27.705090" y2="36.340000" style="stroke:rgb(0,0,255);stroke-width:0.50" />
<line x1="46.000000" y1="70.340000" x2="27.705090" y2="70.340000" style="stroke:rgb(0,0,255);stroke-width:0.50" />
<line x1="28.705090" y1="36.340000" x2="28.705090" y2="70.340000" style="stroke:rgb(0,0,255);stroke-width:0.50" /> 
  <polygon points="28.705090,70.340000 29.705090,67.340000 28.705090,66.340000 27.705090,67.340000" style="fill:rgb(0,0,255);stroke:rgb(0,0,255);stroke-width:0" /><polygon points="28.705090,36.340000 27.705090,39.340000 28.705090,40.340000 29.705090,39.340000" style="fill:rgb(0,0,255);stroke:rgb(0,0,255);stroke-width:0" /> 
  <text x="26.705090" y="53.340000" font-family="inherit" font-size="3.6" fill="rgb(0,0,255)" text-anchor="middle" transform="rotate(-90.000000 26.705090,53.340000)" >34</text> </g>


<g> 
  <line x1="43.000000" y1="131.000000" x2="35.933192" y2="131.000000" style="stroke:rgb(0,0,255);stroke-width:0.50" />
<line x1="43.000000" y1="178.000000" x2="35.933192" y2="178.000000" style="stroke:rgb(0,0,255);stroke-width:0.50" />
<line x1="36.933192" y1="131.000000" x2="36.933192" y2="178.000000" style="stroke:rgb(0,0,255);stroke-width:0.50" /> 
  <polygon points="36.933192,178.000000 37.933192,175.000000 36.933192,174.000000 35.933192,175.000000" style="fill:rgb(0,0,255);stroke:rgb(0,0,255);stroke-width:0" /><polygon points="36.933192,131.000000 35.933192,134.000000 36.933192,135.000000 37.933192,134.000000" style="fill:rgb(0,0,255);stroke:rgb(0,0,255);stroke-width:0" /> 
  <text x="34.933192" y="154.500000" font-family="inherit" font-size="3.6" fill="rgb(0,0,255)" text-anchor="middle" transform="rotate(-90.000000 34.933192,154.500000)" >47</text> </g>


<g> 
  <line x1="118.000000" y1="41.340000" x2="124.922396" y2="41.340000" style="stroke:rgb(0,0,255);stroke-width:0.50" />
<line x1="118.000000" y1="65.340000" x2="124.922396" y2="65.340000" style="stroke:rgb(0,0,255);stroke-width:0.50" />
<line x1="123.922396" y1="41.340000" x2="123.922396" y2="65.340000" style="stroke:rgb(0,0,255);stroke-width:0.50" /> 
  <polygon points="123.922396,65.340000 124.922396,62.340000 123.922396,61.340000 122.922396,62.340000" style="fill:rgb(0,0,255);stroke:rgb(0,0,255);stroke-width:0" /><polygon points="123.922396,41.340000 122.922396,44.340000 123.922396,45.340000 124.922396,44.340000" style="fill:rgb(0,0,255);stroke:rgb(0,0,255);stroke-width:0" /> 
  <text x="121.922396" y="53.340000" font-family="inherit" font-size="3.6" fill="rgb(0,0,255)" text-anchor="middle" transform="rotate(-90.000000 121.922396,53.340000)" >24</text> </g>


</svg>

