G75*
%MOIN*%
%OFA0B0*%
%FSLAX25Y25*%
%IPPOS*%
%LPD*%
%AMOC8*
5,1,8,0,0,1.08239X$1,22.5*
%
%ADD10R,0.06600X0.06600*%
%ADD11C,0.06600*%
%ADD12C,0.07400*%
%ADD13C,0.07050*%
%ADD14C,0.06000*%
%ADD15OC8,0.05200*%
%ADD16C,0.10000*%
%ADD17OC8,0.10000*%
%ADD18OC8,0.06000*%
%ADD19C,0.07500*%
%ADD20OC8,0.07500*%
%ADD21C,0.01000*%
%ADD22C,0.04000*%
%ADD23C,0.01600*%
%ADD24C,0.10000*%
D10*
X0096800Y0186900D03*
X0095300Y0242900D03*
D11*
X0095300Y0232300D03*
X0095300Y0221700D03*
X0096800Y0176300D03*
X0096800Y0165700D03*
D12*
X0021500Y0069800D03*
X0031500Y0069800D03*
X0041500Y0069800D03*
X0051500Y0069800D03*
X0061500Y0069800D03*
X0071500Y0069800D03*
X0081500Y0069800D03*
X0091500Y0069800D03*
X0106500Y0069800D03*
X0116500Y0069800D03*
X0126500Y0069800D03*
X0136500Y0069800D03*
X0146500Y0069800D03*
X0156500Y0069800D03*
X0166500Y0069800D03*
X0176500Y0069800D03*
X0186500Y0069800D03*
X0196500Y0069800D03*
X0195500Y0123800D03*
X0195500Y0133800D03*
X0161500Y0259800D03*
X0151500Y0259800D03*
X0141500Y0259800D03*
X0131500Y0259800D03*
X0121500Y0259800D03*
X0111500Y0259800D03*
X0101500Y0259800D03*
X0091500Y0259800D03*
X0071500Y0259800D03*
X0061500Y0259800D03*
X0051500Y0259800D03*
X0041500Y0259800D03*
X0031500Y0259800D03*
X0021500Y0259800D03*
X0021500Y0095300D03*
X0021500Y0085300D03*
D13*
X0179975Y0153457D02*
X0187025Y0153457D01*
X0187025Y0173143D02*
X0179975Y0173143D01*
X0179975Y0193457D02*
X0187025Y0193457D01*
X0187025Y0213143D02*
X0179975Y0213143D01*
X0179975Y0233457D02*
X0187025Y0233457D01*
X0187025Y0253143D02*
X0179975Y0253143D01*
D14*
X0192500Y0112300D02*
X0198500Y0112300D01*
X0198500Y0102300D02*
X0192500Y0102300D01*
X0192500Y0092300D02*
X0198500Y0092300D01*
D15*
X0062000Y0128800D03*
X0057000Y0121300D03*
X0052000Y0128800D03*
X0057000Y0160300D03*
X0052000Y0167800D03*
X0062000Y0167800D03*
X0057000Y0178800D03*
X0052000Y0186300D03*
X0062000Y0186300D03*
X0057000Y0214800D03*
X0052000Y0222300D03*
X0062000Y0222300D03*
X0057000Y0233300D03*
X0052000Y0240800D03*
X0062000Y0240800D03*
D16*
X0172000Y0106300D03*
D17*
X0152000Y0106300D03*
D18*
X0022000Y0128800D03*
X0021500Y0167800D03*
X0021500Y0186300D03*
X0021000Y0222300D03*
X0021000Y0241300D03*
D19*
X0109500Y0134800D03*
D20*
X0129500Y0134800D03*
D21*
X0111500Y0134800D02*
X0109500Y0134800D01*
X0111500Y0134800D02*
X0111500Y0139800D01*
X0134000Y0162300D01*
X0139000Y0164800D02*
X0106500Y0197300D01*
X0106500Y0234800D01*
X0101500Y0239800D01*
X0099000Y0237300D01*
X0086500Y0237300D01*
X0081500Y0232300D01*
X0066500Y0232300D01*
X0066500Y0244800D01*
X0051500Y0259800D01*
X0071500Y0259800D02*
X0071500Y0247300D01*
X0081500Y0237300D01*
X0076500Y0224800D02*
X0091500Y0224800D01*
X0091500Y0172300D01*
X0096500Y0167300D01*
X0096800Y0165700D01*
X0096500Y0157300D02*
X0089000Y0157300D01*
X0089000Y0209800D01*
X0086500Y0212300D01*
X0084000Y0207300D02*
X0079000Y0202300D01*
X0079000Y0159800D01*
X0079000Y0124800D01*
X0086500Y0124800D01*
X0101500Y0109800D01*
X0101500Y0084800D01*
X0181500Y0084800D01*
X0196500Y0069800D01*
X0194000Y0077300D02*
X0184000Y0087300D01*
X0104000Y0087300D01*
X0104000Y0114800D01*
X0086500Y0132300D01*
X0086500Y0152300D01*
X0086500Y0157300D01*
X0089000Y0157300D01*
X0074000Y0159800D02*
X0071500Y0157300D01*
X0071500Y0124800D01*
X0061500Y0114800D01*
X0061500Y0069800D01*
X0066500Y0077300D02*
X0091500Y0102300D01*
X0091500Y0097300D02*
X0071500Y0077300D01*
X0071500Y0069800D02*
X0089000Y0087300D01*
X0089000Y0082300D02*
X0089000Y0077300D01*
X0081500Y0069800D01*
X0091500Y0069800D02*
X0099000Y0077300D01*
X0099000Y0107300D01*
X0084000Y0107300D01*
X0071500Y0119800D01*
X0076500Y0122300D02*
X0079000Y0124800D01*
X0084000Y0129800D02*
X0086500Y0132300D01*
X0101500Y0122300D02*
X0101500Y0234800D01*
X0094000Y0224800D02*
X0091500Y0224800D01*
X0094000Y0224800D02*
X0094000Y0222300D01*
X0095300Y0221700D01*
X0076500Y0224800D02*
X0074000Y0222300D01*
X0074000Y0212300D01*
X0069000Y0207300D01*
X0069000Y0139800D01*
X0066500Y0137300D01*
X0066500Y0142300D02*
X0056500Y0132300D01*
X0056500Y0127300D01*
X0051500Y0122300D01*
X0051500Y0104800D01*
X0059000Y0097300D01*
X0059000Y0087300D01*
X0041500Y0069800D01*
X0021500Y0095300D02*
X0021500Y0097300D01*
X0054000Y0097300D01*
X0089000Y0082300D02*
X0094000Y0087300D01*
X0109000Y0114800D02*
X0101500Y0122300D01*
X0066500Y0142300D02*
X0066500Y0209800D01*
X0069000Y0212300D01*
X0064000Y0212300D02*
X0064000Y0209800D01*
X0054000Y0199800D01*
X0062000Y0186300D02*
X0061500Y0184800D01*
X0061500Y0169800D01*
X0062000Y0167800D01*
X0064000Y0212300D02*
X0074000Y0222300D01*
X0064000Y0222300D02*
X0062000Y0222300D01*
X0064000Y0222300D02*
X0064000Y0239800D01*
X0062000Y0240800D01*
X0091500Y0254800D02*
X0091500Y0259800D01*
X0091500Y0254800D02*
X0109000Y0254800D01*
X0149000Y0214800D01*
X0149000Y0154800D01*
X0159000Y0144800D01*
X0159000Y0099800D01*
X0164000Y0094800D01*
X0171500Y0089800D02*
X0139000Y0089800D01*
X0139000Y0164800D01*
X0139000Y0169800D02*
X0134000Y0174800D01*
X0134000Y0214800D01*
X0099000Y0249800D01*
X0139000Y0219800D02*
X0146500Y0212300D01*
X0146500Y0117300D01*
X0149000Y0114800D01*
X0144000Y0114800D02*
X0144000Y0189800D01*
X0139000Y0194800D01*
X0194000Y0112300D02*
X0195500Y0112300D01*
X0194000Y0112300D02*
X0171500Y0089800D01*
D22*
X0164000Y0094800D03*
X0149000Y0114800D03*
X0144000Y0114800D03*
X0109000Y0114800D03*
X0091500Y0102300D03*
X0091500Y0097300D03*
X0089000Y0087300D03*
X0094000Y0087300D03*
X0071500Y0077300D03*
X0066500Y0077300D03*
X0054000Y0097300D03*
X0071500Y0119800D03*
X0076500Y0122300D03*
X0084000Y0129800D03*
X0066500Y0137300D03*
X0086500Y0152300D03*
X0079000Y0159800D03*
X0074000Y0159800D03*
X0096500Y0157300D03*
X0134000Y0162300D03*
X0139000Y0169800D03*
X0139000Y0194800D03*
X0139000Y0219800D03*
X0101500Y0234800D03*
X0099000Y0249800D03*
X0081500Y0237300D03*
X0086500Y0212300D03*
X0084000Y0207300D03*
X0069000Y0212300D03*
X0054000Y0199800D03*
X0194000Y0077300D03*
D23*
X0196492Y0081030D02*
X0194875Y0081700D01*
X0193701Y0081700D01*
X0186458Y0088943D01*
X0185643Y0089758D01*
X0184577Y0090200D01*
X0176001Y0090200D01*
X0187100Y0101299D01*
X0187100Y0101226D01*
X0187922Y0099241D01*
X0189441Y0097722D01*
X0190460Y0097300D01*
X0189441Y0096878D01*
X0187922Y0095359D01*
X0187100Y0093374D01*
X0187100Y0091226D01*
X0187922Y0089241D01*
X0189441Y0087722D01*
X0191426Y0086900D01*
X0199574Y0086900D01*
X0201559Y0087722D01*
X0203078Y0089241D01*
X0203900Y0091226D01*
X0203900Y0093374D01*
X0203078Y0095359D01*
X0201559Y0096878D01*
X0200540Y0097300D01*
X0201559Y0097722D01*
X0203078Y0099241D01*
X0203900Y0101226D01*
X0203900Y0103374D01*
X0203078Y0105359D01*
X0201559Y0106878D01*
X0200540Y0107300D01*
X0201559Y0107722D01*
X0203078Y0109241D01*
X0203900Y0111226D01*
X0203900Y0113374D01*
X0203078Y0115359D01*
X0201559Y0116878D01*
X0199574Y0117700D01*
X0191426Y0117700D01*
X0189441Y0116878D01*
X0187922Y0115359D01*
X0187100Y0113374D01*
X0187100Y0111226D01*
X0187605Y0110006D01*
X0170299Y0092700D01*
X0167893Y0092700D01*
X0168400Y0093925D01*
X0168400Y0095675D01*
X0167730Y0097292D01*
X0166492Y0098530D01*
X0164875Y0099200D01*
X0163701Y0099200D01*
X0161900Y0101001D01*
X0161900Y0140435D01*
X0164600Y0137735D01*
X0164600Y0104828D01*
X0165727Y0102108D01*
X0167808Y0100027D01*
X0170528Y0098900D01*
X0173472Y0098900D01*
X0176192Y0100027D01*
X0178273Y0102108D01*
X0179400Y0104828D01*
X0179400Y0142272D01*
X0178273Y0144992D01*
X0172044Y0151221D01*
X0174655Y0153832D01*
X0183125Y0153832D01*
X0183125Y0153082D01*
X0183875Y0153082D01*
X0183875Y0148132D01*
X0187444Y0148132D01*
X0188272Y0148264D01*
X0189069Y0148523D01*
X0189816Y0148903D01*
X0190494Y0149396D01*
X0191087Y0149988D01*
X0191579Y0150667D01*
X0191960Y0151413D01*
X0192219Y0152211D01*
X0192350Y0153038D01*
X0192350Y0153082D01*
X0183875Y0153082D01*
X0183875Y0153832D01*
X0192350Y0153832D01*
X0192350Y0153877D01*
X0192219Y0154704D01*
X0191960Y0155502D01*
X0191579Y0156248D01*
X0191087Y0156926D01*
X0190494Y0157519D01*
X0189816Y0158012D01*
X0189069Y0158392D01*
X0188272Y0158651D01*
X0187444Y0158782D01*
X0183875Y0158782D01*
X0183875Y0153833D01*
X0183125Y0153833D01*
X0183125Y0158782D01*
X0179605Y0158782D01*
X0188040Y0167218D01*
X0188204Y0167218D01*
X0190381Y0168120D01*
X0192048Y0169786D01*
X0192950Y0171964D01*
X0192950Y0174321D01*
X0192048Y0176499D01*
X0190381Y0178165D01*
X0188204Y0179068D01*
X0188040Y0179068D01*
X0187692Y0179416D01*
X0184972Y0180543D01*
X0182028Y0180543D01*
X0179308Y0179416D01*
X0178960Y0179068D01*
X0178796Y0179068D01*
X0176619Y0178165D01*
X0174952Y0176499D01*
X0174050Y0174321D01*
X0174050Y0174158D01*
X0159592Y0159700D01*
X0159028Y0159700D01*
X0156308Y0158573D01*
X0154227Y0156492D01*
X0153401Y0154500D01*
X0151900Y0156001D01*
X0151900Y0215377D01*
X0151458Y0216443D01*
X0113300Y0254602D01*
X0113611Y0254703D01*
X0114383Y0255096D01*
X0115083Y0255605D01*
X0115695Y0256217D01*
X0116132Y0256819D01*
X0116329Y0256345D01*
X0118045Y0254629D01*
X0120287Y0253700D01*
X0122713Y0253700D01*
X0124955Y0254629D01*
X0126500Y0256173D01*
X0128045Y0254629D01*
X0130287Y0253700D01*
X0132713Y0253700D01*
X0134955Y0254629D01*
X0136500Y0256173D01*
X0138045Y0254629D01*
X0140287Y0253700D01*
X0142713Y0253700D01*
X0144955Y0254629D01*
X0146500Y0256173D01*
X0148045Y0254629D01*
X0150287Y0253700D01*
X0152713Y0253700D01*
X0154955Y0254629D01*
X0156500Y0256173D01*
X0158045Y0254629D01*
X0160287Y0253700D01*
X0162713Y0253700D01*
X0164955Y0254629D01*
X0166671Y0256345D01*
X0167600Y0258587D01*
X0167600Y0261013D01*
X0166671Y0263255D01*
X0166127Y0263800D01*
X0206000Y0263800D01*
X0206000Y0065800D01*
X0201127Y0065800D01*
X0201671Y0066345D01*
X0202600Y0068587D01*
X0202600Y0071013D01*
X0201671Y0073255D01*
X0199955Y0074971D01*
X0198114Y0075734D01*
X0198400Y0076425D01*
X0198400Y0078175D01*
X0197730Y0079792D01*
X0196492Y0081030D01*
X0195693Y0081361D02*
X0206000Y0081361D01*
X0206000Y0079763D02*
X0197742Y0079763D01*
X0198400Y0078164D02*
X0206000Y0078164D01*
X0206000Y0076566D02*
X0198400Y0076566D01*
X0199959Y0074967D02*
X0206000Y0074967D01*
X0206000Y0073369D02*
X0201558Y0073369D01*
X0202286Y0071770D02*
X0206000Y0071770D01*
X0206000Y0070172D02*
X0202600Y0070172D01*
X0202594Y0068573D02*
X0206000Y0068573D01*
X0206000Y0066975D02*
X0201932Y0066975D01*
X0206000Y0082960D02*
X0192441Y0082960D01*
X0190843Y0084558D02*
X0206000Y0084558D01*
X0206000Y0086157D02*
X0189244Y0086157D01*
X0189408Y0087755D02*
X0187646Y0087755D01*
X0187875Y0089354D02*
X0186047Y0089354D01*
X0187213Y0090952D02*
X0176754Y0090952D01*
X0178352Y0092551D02*
X0187100Y0092551D01*
X0187421Y0094149D02*
X0179951Y0094149D01*
X0181549Y0095748D02*
X0188311Y0095748D01*
X0190348Y0097346D02*
X0183148Y0097346D01*
X0184746Y0098945D02*
X0188218Y0098945D01*
X0187383Y0100543D02*
X0186345Y0100543D01*
X0182938Y0105339D02*
X0179400Y0105339D01*
X0179400Y0106937D02*
X0184536Y0106937D01*
X0186135Y0108536D02*
X0179400Y0108536D01*
X0179400Y0110134D02*
X0187552Y0110134D01*
X0187100Y0111733D02*
X0179400Y0111733D01*
X0179400Y0113332D02*
X0187100Y0113332D01*
X0187744Y0114930D02*
X0179400Y0114930D01*
X0179400Y0116529D02*
X0189092Y0116529D01*
X0192045Y0118629D02*
X0190329Y0120345D01*
X0189400Y0122587D01*
X0189400Y0125013D01*
X0190329Y0127255D01*
X0191873Y0128800D01*
X0190329Y0130345D01*
X0189400Y0132587D01*
X0189400Y0135013D01*
X0190329Y0137255D01*
X0192045Y0138971D01*
X0194287Y0139900D01*
X0196713Y0139900D01*
X0198955Y0138971D01*
X0200671Y0137255D01*
X0201600Y0135013D01*
X0201600Y0132587D01*
X0200671Y0130345D01*
X0199127Y0128800D01*
X0200671Y0127255D01*
X0201600Y0125013D01*
X0201600Y0122587D01*
X0200671Y0120345D01*
X0198955Y0118629D01*
X0196713Y0117700D01*
X0194287Y0117700D01*
X0192045Y0118629D01*
X0193256Y0118127D02*
X0179400Y0118127D01*
X0179400Y0119726D02*
X0190948Y0119726D01*
X0189923Y0121324D02*
X0179400Y0121324D01*
X0179400Y0122923D02*
X0189400Y0122923D01*
X0189400Y0124521D02*
X0179400Y0124521D01*
X0179400Y0126120D02*
X0189858Y0126120D01*
X0190791Y0127718D02*
X0179400Y0127718D01*
X0179400Y0129317D02*
X0191357Y0129317D01*
X0190092Y0130915D02*
X0179400Y0130915D01*
X0179400Y0132514D02*
X0189430Y0132514D01*
X0189400Y0134112D02*
X0179400Y0134112D01*
X0179400Y0135711D02*
X0189689Y0135711D01*
X0190382Y0137309D02*
X0179400Y0137309D01*
X0179400Y0138908D02*
X0191981Y0138908D01*
X0199019Y0138908D02*
X0206000Y0138908D01*
X0206000Y0140506D02*
X0179400Y0140506D01*
X0179400Y0142105D02*
X0206000Y0142105D01*
X0206000Y0143703D02*
X0178807Y0143703D01*
X0177963Y0145302D02*
X0206000Y0145302D01*
X0206000Y0146900D02*
X0176365Y0146900D01*
X0177184Y0148903D02*
X0177931Y0148523D01*
X0178728Y0148264D01*
X0179556Y0148132D01*
X0183125Y0148132D01*
X0183125Y0153082D01*
X0174650Y0153082D01*
X0174650Y0153038D01*
X0174781Y0152211D01*
X0175040Y0151413D01*
X0175421Y0150667D01*
X0175913Y0149988D01*
X0176506Y0149396D01*
X0177184Y0148903D01*
X0178004Y0148499D02*
X0174766Y0148499D01*
X0175834Y0150097D02*
X0173168Y0150097D01*
X0172518Y0151696D02*
X0174948Y0151696D01*
X0174117Y0153294D02*
X0183125Y0153294D01*
X0183875Y0153294D02*
X0206000Y0153294D01*
X0206000Y0151696D02*
X0192052Y0151696D01*
X0191166Y0150097D02*
X0206000Y0150097D01*
X0206000Y0148499D02*
X0188996Y0148499D01*
X0183875Y0148499D02*
X0183125Y0148499D01*
X0183125Y0150097D02*
X0183875Y0150097D01*
X0183875Y0151696D02*
X0183125Y0151696D01*
X0183125Y0154893D02*
X0183875Y0154893D01*
X0183875Y0156491D02*
X0183125Y0156491D01*
X0183125Y0158090D02*
X0183875Y0158090D01*
X0182109Y0161287D02*
X0206000Y0161287D01*
X0206000Y0162885D02*
X0183708Y0162885D01*
X0185307Y0164484D02*
X0206000Y0164484D01*
X0206000Y0166082D02*
X0186905Y0166082D01*
X0189322Y0167681D02*
X0206000Y0167681D01*
X0206000Y0169279D02*
X0191541Y0169279D01*
X0192500Y0170878D02*
X0206000Y0170878D01*
X0206000Y0172476D02*
X0192950Y0172476D01*
X0192950Y0174075D02*
X0206000Y0174075D01*
X0206000Y0175673D02*
X0192390Y0175673D01*
X0191275Y0177272D02*
X0206000Y0177272D01*
X0206000Y0178870D02*
X0188679Y0178870D01*
X0185149Y0180469D02*
X0206000Y0180469D01*
X0206000Y0182068D02*
X0151900Y0182068D01*
X0151900Y0183666D02*
X0206000Y0183666D01*
X0206000Y0185265D02*
X0151900Y0185265D01*
X0151900Y0186863D02*
X0206000Y0186863D01*
X0206000Y0188462D02*
X0190408Y0188462D01*
X0190381Y0188435D02*
X0192048Y0190101D01*
X0192950Y0192279D01*
X0192950Y0194636D01*
X0192048Y0196814D01*
X0190381Y0198480D01*
X0188204Y0199382D01*
X0178796Y0199382D01*
X0176619Y0198480D01*
X0174952Y0196814D01*
X0174050Y0194636D01*
X0174050Y0192279D01*
X0174952Y0190101D01*
X0176619Y0188435D01*
X0178796Y0187532D01*
X0188204Y0187532D01*
X0190381Y0188435D01*
X0192007Y0190060D02*
X0206000Y0190060D01*
X0206000Y0191659D02*
X0192693Y0191659D01*
X0192950Y0193257D02*
X0206000Y0193257D01*
X0206000Y0194856D02*
X0192859Y0194856D01*
X0192197Y0196454D02*
X0206000Y0196454D01*
X0206000Y0198053D02*
X0190809Y0198053D01*
X0188204Y0207218D02*
X0190381Y0208120D01*
X0192048Y0209786D01*
X0192950Y0211964D01*
X0192950Y0214321D01*
X0192048Y0216499D01*
X0190381Y0218165D01*
X0188204Y0219068D01*
X0178796Y0219068D01*
X0176619Y0218165D01*
X0174952Y0216499D01*
X0174050Y0214321D01*
X0174050Y0211964D01*
X0174952Y0209786D01*
X0176619Y0208120D01*
X0178796Y0207218D01*
X0188204Y0207218D01*
X0189232Y0207644D02*
X0206000Y0207644D01*
X0206000Y0209242D02*
X0191504Y0209242D01*
X0192485Y0210841D02*
X0206000Y0210841D01*
X0206000Y0212439D02*
X0192950Y0212439D01*
X0192950Y0214038D02*
X0206000Y0214038D01*
X0206000Y0215636D02*
X0192405Y0215636D01*
X0191312Y0217235D02*
X0206000Y0217235D01*
X0206000Y0218833D02*
X0188769Y0218833D01*
X0188880Y0224132D02*
X0192307Y0225552D01*
X0194930Y0228175D01*
X0196350Y0231603D01*
X0196350Y0235312D01*
X0194930Y0238740D01*
X0192307Y0241363D01*
X0188880Y0242782D01*
X0178120Y0242782D01*
X0174693Y0241363D01*
X0172070Y0238740D01*
X0170650Y0235312D01*
X0170650Y0231603D01*
X0172070Y0228175D01*
X0174693Y0225552D01*
X0178120Y0224132D01*
X0188880Y0224132D01*
X0191523Y0225227D02*
X0206000Y0225227D01*
X0206000Y0223629D02*
X0144272Y0223629D01*
X0142674Y0225227D02*
X0175477Y0225227D01*
X0173419Y0226826D02*
X0141075Y0226826D01*
X0139477Y0228424D02*
X0171966Y0228424D01*
X0171304Y0230023D02*
X0137878Y0230023D01*
X0136280Y0231621D02*
X0170650Y0231621D01*
X0170650Y0233220D02*
X0134681Y0233220D01*
X0133083Y0234818D02*
X0170650Y0234818D01*
X0171108Y0236417D02*
X0131484Y0236417D01*
X0129886Y0238015D02*
X0171770Y0238015D01*
X0172944Y0239614D02*
X0128287Y0239614D01*
X0126689Y0241212D02*
X0174542Y0241212D01*
X0177857Y0247606D02*
X0120295Y0247606D01*
X0121893Y0246008D02*
X0206000Y0246008D01*
X0206000Y0247606D02*
X0189143Y0247606D01*
X0188204Y0247218D02*
X0190381Y0248120D01*
X0192048Y0249786D01*
X0192950Y0251964D01*
X0192950Y0254321D01*
X0192048Y0256499D01*
X0190381Y0258165D01*
X0188204Y0259068D01*
X0178796Y0259068D01*
X0176619Y0258165D01*
X0174952Y0256499D01*
X0174050Y0254321D01*
X0174050Y0251964D01*
X0174952Y0249786D01*
X0176619Y0248120D01*
X0178796Y0247218D01*
X0188204Y0247218D01*
X0191467Y0249205D02*
X0206000Y0249205D01*
X0206000Y0250803D02*
X0192469Y0250803D01*
X0192950Y0252402D02*
X0206000Y0252402D01*
X0206000Y0254001D02*
X0192950Y0254001D01*
X0192421Y0255599D02*
X0206000Y0255599D01*
X0206000Y0257198D02*
X0191349Y0257198D01*
X0188859Y0258796D02*
X0206000Y0258796D01*
X0206000Y0260395D02*
X0167600Y0260395D01*
X0167600Y0258796D02*
X0178141Y0258796D01*
X0175651Y0257198D02*
X0167025Y0257198D01*
X0165926Y0255599D02*
X0174579Y0255599D01*
X0174050Y0254001D02*
X0163439Y0254001D01*
X0159561Y0254001D02*
X0153439Y0254001D01*
X0155926Y0255599D02*
X0157074Y0255599D01*
X0149561Y0254001D02*
X0143439Y0254001D01*
X0145926Y0255599D02*
X0147074Y0255599D01*
X0139561Y0254001D02*
X0133439Y0254001D01*
X0135926Y0255599D02*
X0137074Y0255599D01*
X0129561Y0254001D02*
X0123439Y0254001D01*
X0125926Y0255599D02*
X0127074Y0255599D01*
X0119561Y0254001D02*
X0113901Y0254001D01*
X0115075Y0255599D02*
X0117074Y0255599D01*
X0115499Y0252402D02*
X0174050Y0252402D01*
X0174531Y0250803D02*
X0117098Y0250803D01*
X0118696Y0249205D02*
X0175533Y0249205D01*
X0167194Y0261993D02*
X0206000Y0261993D01*
X0206000Y0263592D02*
X0166335Y0263592D01*
X0192458Y0241212D02*
X0206000Y0241212D01*
X0206000Y0239614D02*
X0194056Y0239614D01*
X0195230Y0238015D02*
X0206000Y0238015D01*
X0206000Y0236417D02*
X0195892Y0236417D01*
X0196350Y0234818D02*
X0206000Y0234818D01*
X0206000Y0233220D02*
X0196350Y0233220D01*
X0196350Y0231621D02*
X0206000Y0231621D01*
X0206000Y0230023D02*
X0195696Y0230023D01*
X0195033Y0228424D02*
X0206000Y0228424D01*
X0206000Y0226826D02*
X0193581Y0226826D01*
X0206000Y0222030D02*
X0145871Y0222030D01*
X0147469Y0220432D02*
X0206000Y0220432D01*
X0206000Y0206045D02*
X0151900Y0206045D01*
X0151900Y0204447D02*
X0206000Y0204447D01*
X0206000Y0202848D02*
X0151900Y0202848D01*
X0151900Y0201250D02*
X0206000Y0201250D01*
X0206000Y0199651D02*
X0151900Y0199651D01*
X0151900Y0198053D02*
X0176191Y0198053D01*
X0174803Y0196454D02*
X0151900Y0196454D01*
X0151900Y0194856D02*
X0174141Y0194856D01*
X0174050Y0193257D02*
X0151900Y0193257D01*
X0151900Y0191659D02*
X0174307Y0191659D01*
X0174993Y0190060D02*
X0151900Y0190060D01*
X0151900Y0188462D02*
X0176592Y0188462D01*
X0181851Y0180469D02*
X0151900Y0180469D01*
X0151900Y0178870D02*
X0178321Y0178870D01*
X0175725Y0177272D02*
X0151900Y0177272D01*
X0151900Y0175673D02*
X0174610Y0175673D01*
X0173967Y0174075D02*
X0151900Y0174075D01*
X0151900Y0172476D02*
X0172369Y0172476D01*
X0170770Y0170878D02*
X0151900Y0170878D01*
X0151900Y0169279D02*
X0169172Y0169279D01*
X0167573Y0167681D02*
X0151900Y0167681D01*
X0151900Y0166082D02*
X0165975Y0166082D01*
X0164376Y0164484D02*
X0151900Y0164484D01*
X0151900Y0162885D02*
X0162778Y0162885D01*
X0161179Y0161287D02*
X0151900Y0161287D01*
X0151900Y0159688D02*
X0159000Y0159688D01*
X0155825Y0158090D02*
X0151900Y0158090D01*
X0151900Y0156491D02*
X0154226Y0156491D01*
X0153564Y0154893D02*
X0153008Y0154893D01*
X0136100Y0154893D02*
X0130694Y0154893D01*
X0132293Y0156491D02*
X0136100Y0156491D01*
X0136100Y0158090D02*
X0135334Y0158090D01*
X0134875Y0157900D02*
X0136100Y0158407D01*
X0136100Y0090200D01*
X0106900Y0090200D01*
X0106900Y0110907D01*
X0108125Y0110400D01*
X0109875Y0110400D01*
X0111492Y0111070D01*
X0112730Y0112308D01*
X0113400Y0113925D01*
X0113400Y0115675D01*
X0112730Y0117292D01*
X0111492Y0118530D01*
X0109875Y0119200D01*
X0108701Y0119200D01*
X0104400Y0123501D01*
X0104400Y0131203D01*
X0106016Y0129586D01*
X0108277Y0128650D01*
X0110723Y0128650D01*
X0112984Y0129586D01*
X0114714Y0131316D01*
X0115650Y0133577D01*
X0115650Y0136023D01*
X0114714Y0138284D01*
X0114400Y0138597D01*
X0114400Y0138599D01*
X0133701Y0157900D01*
X0134875Y0157900D01*
X0136100Y0153294D02*
X0129096Y0153294D01*
X0127497Y0151696D02*
X0136100Y0151696D01*
X0136100Y0150097D02*
X0125898Y0150097D01*
X0124300Y0148499D02*
X0136100Y0148499D01*
X0136100Y0146900D02*
X0122701Y0146900D01*
X0121103Y0145302D02*
X0136100Y0145302D01*
X0136100Y0143703D02*
X0119504Y0143703D01*
X0117906Y0142105D02*
X0136100Y0142105D01*
X0136100Y0140506D02*
X0116307Y0140506D01*
X0114709Y0138908D02*
X0125759Y0138908D01*
X0127201Y0140350D02*
X0123950Y0137099D01*
X0123950Y0134800D01*
X0129500Y0134800D01*
X0135050Y0134800D01*
X0135050Y0137099D01*
X0131799Y0140350D01*
X0129500Y0140350D01*
X0129500Y0134800D01*
X0129500Y0134800D01*
X0129500Y0134800D01*
X0135050Y0134800D01*
X0135050Y0132501D01*
X0131799Y0129250D01*
X0129500Y0129250D01*
X0129500Y0134800D01*
X0129500Y0134800D01*
X0129500Y0134800D01*
X0129500Y0140350D01*
X0127201Y0140350D01*
X0129500Y0138908D02*
X0129500Y0138908D01*
X0129500Y0137309D02*
X0129500Y0137309D01*
X0129500Y0135711D02*
X0129500Y0135711D01*
X0129500Y0134800D02*
X0123950Y0134800D01*
X0123950Y0132501D01*
X0127201Y0129250D01*
X0129500Y0129250D01*
X0129500Y0134800D01*
X0129500Y0134112D02*
X0129500Y0134112D01*
X0129500Y0132514D02*
X0129500Y0132514D01*
X0129500Y0130915D02*
X0129500Y0130915D01*
X0129500Y0129317D02*
X0129500Y0129317D01*
X0131866Y0129317D02*
X0136100Y0129317D01*
X0136100Y0130915D02*
X0133464Y0130915D01*
X0135050Y0132514D02*
X0136100Y0132514D01*
X0136100Y0134112D02*
X0135050Y0134112D01*
X0135050Y0135711D02*
X0136100Y0135711D01*
X0136100Y0137309D02*
X0134840Y0137309D01*
X0136100Y0138908D02*
X0133241Y0138908D01*
X0124160Y0137309D02*
X0115117Y0137309D01*
X0115650Y0135711D02*
X0123950Y0135711D01*
X0123950Y0134112D02*
X0115650Y0134112D01*
X0115210Y0132514D02*
X0123950Y0132514D01*
X0125536Y0130915D02*
X0114313Y0130915D01*
X0112333Y0129317D02*
X0127134Y0129317D01*
X0136100Y0127718D02*
X0104400Y0127718D01*
X0104400Y0126120D02*
X0136100Y0126120D01*
X0136100Y0124521D02*
X0104400Y0124521D01*
X0104979Y0122923D02*
X0136100Y0122923D01*
X0136100Y0121324D02*
X0106577Y0121324D01*
X0108176Y0119726D02*
X0136100Y0119726D01*
X0136100Y0118127D02*
X0111895Y0118127D01*
X0113047Y0116529D02*
X0136100Y0116529D01*
X0136100Y0114930D02*
X0113400Y0114930D01*
X0113154Y0113332D02*
X0136100Y0113332D01*
X0136100Y0111733D02*
X0112156Y0111733D01*
X0106900Y0110134D02*
X0136100Y0110134D01*
X0136100Y0108536D02*
X0106900Y0108536D01*
X0106900Y0106937D02*
X0136100Y0106937D01*
X0136100Y0105339D02*
X0106900Y0105339D01*
X0106900Y0103740D02*
X0136100Y0103740D01*
X0136100Y0102142D02*
X0106900Y0102142D01*
X0106900Y0100543D02*
X0136100Y0100543D01*
X0136100Y0098945D02*
X0106900Y0098945D01*
X0106900Y0097346D02*
X0136100Y0097346D01*
X0136100Y0095748D02*
X0106900Y0095748D01*
X0106900Y0094149D02*
X0136100Y0094149D01*
X0136100Y0092551D02*
X0106900Y0092551D01*
X0106900Y0090952D02*
X0136100Y0090952D01*
X0141900Y0092700D02*
X0141900Y0110907D01*
X0143125Y0110400D01*
X0144875Y0110400D01*
X0146492Y0111070D01*
X0146500Y0111077D01*
X0146508Y0111070D01*
X0146964Y0110881D01*
X0145200Y0109117D01*
X0145200Y0106500D01*
X0151800Y0106500D01*
X0151800Y0106100D01*
X0152200Y0106100D01*
X0152200Y0099500D01*
X0154817Y0099500D01*
X0156100Y0100783D01*
X0156100Y0099223D01*
X0156541Y0098157D01*
X0157357Y0097341D01*
X0159600Y0095099D01*
X0159600Y0093925D01*
X0160107Y0092700D01*
X0141900Y0092700D01*
X0141900Y0094149D02*
X0159600Y0094149D01*
X0158951Y0095748D02*
X0141900Y0095748D01*
X0141900Y0097346D02*
X0157352Y0097346D01*
X0156215Y0098945D02*
X0141900Y0098945D01*
X0141900Y0100543D02*
X0148140Y0100543D01*
X0149183Y0099500D02*
X0151800Y0099500D01*
X0151800Y0106100D01*
X0145200Y0106100D01*
X0145200Y0103483D01*
X0149183Y0099500D01*
X0151800Y0100543D02*
X0152200Y0100543D01*
X0152200Y0102142D02*
X0151800Y0102142D01*
X0151800Y0103740D02*
X0152200Y0103740D01*
X0152200Y0105339D02*
X0151800Y0105339D01*
X0146541Y0102142D02*
X0141900Y0102142D01*
X0141900Y0103740D02*
X0145200Y0103740D01*
X0145200Y0105339D02*
X0141900Y0105339D01*
X0141900Y0106937D02*
X0145200Y0106937D01*
X0145200Y0108536D02*
X0141900Y0108536D01*
X0141900Y0110134D02*
X0146218Y0110134D01*
X0155860Y0100543D02*
X0156100Y0100543D01*
X0161900Y0102142D02*
X0165713Y0102142D01*
X0165050Y0103740D02*
X0161900Y0103740D01*
X0161900Y0105339D02*
X0164600Y0105339D01*
X0164600Y0106937D02*
X0161900Y0106937D01*
X0161900Y0108536D02*
X0164600Y0108536D01*
X0164600Y0110134D02*
X0161900Y0110134D01*
X0161900Y0111733D02*
X0164600Y0111733D01*
X0164600Y0113332D02*
X0161900Y0113332D01*
X0161900Y0114930D02*
X0164600Y0114930D01*
X0164600Y0116529D02*
X0161900Y0116529D01*
X0161900Y0118127D02*
X0164600Y0118127D01*
X0164600Y0119726D02*
X0161900Y0119726D01*
X0161900Y0121324D02*
X0164600Y0121324D01*
X0164600Y0122923D02*
X0161900Y0122923D01*
X0161900Y0124521D02*
X0164600Y0124521D01*
X0164600Y0126120D02*
X0161900Y0126120D01*
X0161900Y0127718D02*
X0164600Y0127718D01*
X0164600Y0129317D02*
X0161900Y0129317D01*
X0161900Y0130915D02*
X0164600Y0130915D01*
X0164600Y0132514D02*
X0161900Y0132514D01*
X0161900Y0134112D02*
X0164600Y0134112D01*
X0164600Y0135711D02*
X0161900Y0135711D01*
X0161900Y0137309D02*
X0164600Y0137309D01*
X0163427Y0138908D02*
X0161900Y0138908D01*
X0180511Y0159688D02*
X0206000Y0159688D01*
X0206000Y0158090D02*
X0189663Y0158090D01*
X0191403Y0156491D02*
X0206000Y0156491D01*
X0206000Y0154893D02*
X0192158Y0154893D01*
X0200617Y0137309D02*
X0206000Y0137309D01*
X0206000Y0135711D02*
X0201311Y0135711D01*
X0201600Y0134112D02*
X0206000Y0134112D01*
X0206000Y0132514D02*
X0201570Y0132514D01*
X0200908Y0130915D02*
X0206000Y0130915D01*
X0206000Y0129317D02*
X0199643Y0129317D01*
X0200209Y0127718D02*
X0206000Y0127718D01*
X0206000Y0126120D02*
X0201142Y0126120D01*
X0201600Y0124521D02*
X0206000Y0124521D01*
X0206000Y0122923D02*
X0201600Y0122923D01*
X0201077Y0121324D02*
X0206000Y0121324D01*
X0206000Y0119726D02*
X0200052Y0119726D01*
X0197744Y0118127D02*
X0206000Y0118127D01*
X0206000Y0116529D02*
X0201908Y0116529D01*
X0203256Y0114930D02*
X0206000Y0114930D01*
X0206000Y0113332D02*
X0203900Y0113332D01*
X0203900Y0111733D02*
X0206000Y0111733D01*
X0206000Y0110134D02*
X0203448Y0110134D01*
X0202373Y0108536D02*
X0206000Y0108536D01*
X0206000Y0106937D02*
X0201415Y0106937D01*
X0203086Y0105339D02*
X0206000Y0105339D01*
X0206000Y0103740D02*
X0203748Y0103740D01*
X0203900Y0102142D02*
X0206000Y0102142D01*
X0206000Y0100543D02*
X0203617Y0100543D01*
X0202782Y0098945D02*
X0206000Y0098945D01*
X0206000Y0097346D02*
X0200652Y0097346D01*
X0202689Y0095748D02*
X0206000Y0095748D01*
X0206000Y0094149D02*
X0203579Y0094149D01*
X0203900Y0092551D02*
X0206000Y0092551D01*
X0206000Y0090952D02*
X0203787Y0090952D01*
X0203125Y0089354D02*
X0206000Y0089354D01*
X0206000Y0087755D02*
X0201592Y0087755D01*
X0186299Y0075900D02*
X0185287Y0075900D01*
X0183045Y0074971D01*
X0181500Y0073427D01*
X0179955Y0074971D01*
X0177713Y0075900D01*
X0175287Y0075900D01*
X0173045Y0074971D01*
X0171329Y0073255D01*
X0171132Y0072781D01*
X0170695Y0073383D01*
X0170083Y0073995D01*
X0169383Y0074504D01*
X0168611Y0074897D01*
X0167788Y0075165D01*
X0166933Y0075300D01*
X0166700Y0075300D01*
X0166700Y0070000D01*
X0166300Y0070000D01*
X0166300Y0075300D01*
X0166067Y0075300D01*
X0165212Y0075165D01*
X0164389Y0074897D01*
X0163617Y0074504D01*
X0162917Y0073995D01*
X0162305Y0073383D01*
X0161868Y0072781D01*
X0161671Y0073255D01*
X0159955Y0074971D01*
X0157713Y0075900D01*
X0155287Y0075900D01*
X0153045Y0074971D01*
X0151500Y0073427D01*
X0149955Y0074971D01*
X0147713Y0075900D01*
X0145287Y0075900D01*
X0143045Y0074971D01*
X0141500Y0073427D01*
X0139955Y0074971D01*
X0137713Y0075900D01*
X0135287Y0075900D01*
X0133045Y0074971D01*
X0131500Y0073427D01*
X0129955Y0074971D01*
X0127713Y0075900D01*
X0125287Y0075900D01*
X0123045Y0074971D01*
X0121500Y0073427D01*
X0119955Y0074971D01*
X0117713Y0075900D01*
X0115287Y0075900D01*
X0113045Y0074971D01*
X0111500Y0073427D01*
X0109955Y0074971D01*
X0107713Y0075900D01*
X0105287Y0075900D01*
X0103045Y0074971D01*
X0101329Y0073255D01*
X0100400Y0071013D01*
X0100400Y0068587D01*
X0101329Y0066345D01*
X0101873Y0065800D01*
X0096127Y0065800D01*
X0096671Y0066345D01*
X0097600Y0068587D01*
X0097600Y0071013D01*
X0097370Y0071569D01*
X0101458Y0075657D01*
X0101900Y0076723D01*
X0101900Y0081900D01*
X0180299Y0081900D01*
X0186299Y0075900D01*
X0185633Y0076566D02*
X0101835Y0076566D01*
X0101900Y0078164D02*
X0184034Y0078164D01*
X0182436Y0079763D02*
X0101900Y0079763D01*
X0101900Y0081361D02*
X0180837Y0081361D01*
X0179959Y0074967D02*
X0183041Y0074967D01*
X0173041Y0074967D02*
X0168395Y0074967D01*
X0166700Y0074967D02*
X0166300Y0074967D01*
X0166300Y0073369D02*
X0166700Y0073369D01*
X0166700Y0071770D02*
X0166300Y0071770D01*
X0166300Y0070172D02*
X0166700Y0070172D01*
X0164605Y0074967D02*
X0159959Y0074967D01*
X0161558Y0073369D02*
X0162294Y0073369D01*
X0170706Y0073369D02*
X0171442Y0073369D01*
X0153041Y0074967D02*
X0149959Y0074967D01*
X0143041Y0074967D02*
X0139959Y0074967D01*
X0133041Y0074967D02*
X0129959Y0074967D01*
X0123041Y0074967D02*
X0119959Y0074967D01*
X0113041Y0074967D02*
X0109959Y0074967D01*
X0103041Y0074967D02*
X0100768Y0074967D01*
X0101442Y0073369D02*
X0099170Y0073369D01*
X0100714Y0071770D02*
X0097571Y0071770D01*
X0097600Y0070172D02*
X0100400Y0070172D01*
X0100406Y0068573D02*
X0097594Y0068573D01*
X0096932Y0066975D02*
X0101068Y0066975D01*
X0104400Y0129317D02*
X0106667Y0129317D01*
X0104687Y0130915D02*
X0104400Y0130915D01*
X0052000Y0128800D02*
X0022000Y0128800D01*
X0021500Y0167800D02*
X0052000Y0167800D01*
X0052000Y0186300D02*
X0021500Y0186300D01*
X0021000Y0222300D02*
X0052000Y0222300D01*
X0052000Y0240800D02*
X0021500Y0240800D01*
X0021000Y0241300D01*
X0088500Y0241212D02*
X0090200Y0241212D01*
X0090200Y0240200D02*
X0090200Y0242900D01*
X0095300Y0242900D01*
X0100400Y0242900D01*
X0100400Y0244299D01*
X0101999Y0242700D01*
X0100923Y0242700D01*
X0100400Y0242483D01*
X0100400Y0242900D01*
X0095300Y0242900D01*
X0095300Y0242900D01*
X0095300Y0242900D01*
X0090200Y0242900D01*
X0090200Y0246437D01*
X0090323Y0246895D01*
X0090560Y0247305D01*
X0090895Y0247640D01*
X0091305Y0247877D01*
X0091763Y0248000D01*
X0094983Y0248000D01*
X0094600Y0248925D01*
X0094600Y0250675D01*
X0095107Y0251900D01*
X0090923Y0251900D01*
X0089857Y0252341D01*
X0089041Y0253157D01*
X0088600Y0254223D01*
X0088600Y0254399D01*
X0088500Y0254440D01*
X0088500Y0240200D01*
X0090200Y0240200D01*
X0090200Y0242811D02*
X0088500Y0242811D01*
X0088500Y0244409D02*
X0090200Y0244409D01*
X0090200Y0246008D02*
X0088500Y0246008D01*
X0088500Y0247606D02*
X0090861Y0247606D01*
X0088500Y0249205D02*
X0094600Y0249205D01*
X0094653Y0250803D02*
X0088500Y0250803D01*
X0088500Y0252402D02*
X0089797Y0252402D01*
X0088692Y0254001D02*
X0088500Y0254001D01*
X0100400Y0242811D02*
X0101888Y0242811D01*
X0101700Y0259600D02*
X0101700Y0260000D01*
X0107000Y0260000D01*
X0111300Y0260000D01*
X0111300Y0259600D01*
X0101700Y0259600D01*
X0123492Y0244409D02*
X0206000Y0244409D01*
X0206000Y0242811D02*
X0125090Y0242811D01*
X0149068Y0218833D02*
X0178231Y0218833D01*
X0175688Y0217235D02*
X0150666Y0217235D01*
X0151793Y0215636D02*
X0174595Y0215636D01*
X0174050Y0214038D02*
X0151900Y0214038D01*
X0151900Y0212439D02*
X0174050Y0212439D01*
X0174515Y0210841D02*
X0151900Y0210841D01*
X0151900Y0209242D02*
X0175496Y0209242D01*
X0177768Y0207644D02*
X0151900Y0207644D01*
X0098600Y0207644D02*
X0094400Y0207644D01*
X0094400Y0209242D02*
X0098600Y0209242D01*
X0098600Y0210841D02*
X0094400Y0210841D01*
X0094400Y0212439D02*
X0098600Y0212439D01*
X0098600Y0214038D02*
X0094400Y0214038D01*
X0094400Y0215636D02*
X0098600Y0215636D01*
X0098529Y0216868D02*
X0098600Y0216939D01*
X0098600Y0192000D01*
X0096800Y0192000D01*
X0096800Y0186900D01*
X0096800Y0186900D01*
X0096800Y0192000D01*
X0094400Y0192000D01*
X0094400Y0216000D01*
X0096434Y0216000D01*
X0098529Y0216868D01*
X0098600Y0206045D02*
X0094400Y0206045D01*
X0094400Y0204447D02*
X0098600Y0204447D01*
X0098600Y0202848D02*
X0094400Y0202848D01*
X0094400Y0201250D02*
X0098600Y0201250D01*
X0098600Y0199651D02*
X0094400Y0199651D01*
X0094400Y0198053D02*
X0098600Y0198053D01*
X0098600Y0196454D02*
X0094400Y0196454D01*
X0094400Y0194856D02*
X0098600Y0194856D01*
X0098600Y0193257D02*
X0094400Y0193257D01*
X0096800Y0191659D02*
X0096800Y0191659D01*
X0096800Y0190060D02*
X0096800Y0190060D01*
X0096800Y0188462D02*
X0096800Y0188462D01*
X0178949Y0103740D02*
X0181339Y0103740D01*
X0179741Y0102142D02*
X0178287Y0102142D01*
X0178142Y0100543D02*
X0176709Y0100543D01*
X0176544Y0098945D02*
X0173580Y0098945D01*
X0174945Y0097346D02*
X0167676Y0097346D01*
X0168370Y0095748D02*
X0173347Y0095748D01*
X0171748Y0094149D02*
X0168400Y0094149D01*
X0170420Y0098945D02*
X0165491Y0098945D01*
X0167291Y0100543D02*
X0162358Y0100543D01*
D24*
X0172000Y0106300D02*
X0172000Y0140800D01*
X0160500Y0152300D01*
X0162657Y0152300D01*
X0183500Y0173143D01*
M02*
