G75*
%MOIN*%
%OFA0B0*%
%FSLAX25Y25*%
%IPPOS*%
%LPD*%
%AMOC8*
5,1,8,0,0,1.08239X$1,22.5*
%
%ADD10R,0.02965X0.05524*%
%ADD11R,0.07400X0.07400*%
%ADD12C,0.07400*%
%ADD13R,0.04737X0.05131*%
%ADD14C,0.08200*%
%ADD15C,0.07850*%
%ADD16R,0.09461X0.03162*%
%ADD17R,0.07099X0.07887*%
%ADD18R,0.09500X0.03200*%
%ADD19R,0.04540X0.04343*%
%ADD20R,0.04343X0.04540*%
%ADD21R,0.05131X0.04737*%
%ADD22C,0.06800*%
%ADD23OC8,0.06000*%
%ADD24C,0.10800*%
%ADD25OC8,0.10800*%
%ADD26OC8,0.06800*%
%ADD27R,0.05918X0.06706*%
%ADD28C,0.08300*%
%ADD29OC8,0.08300*%
%ADD30C,0.04800*%
D10*
X0074260Y0103681D03*
X0078000Y0103681D03*
X0081740Y0103681D03*
X0081740Y0113919D03*
X0078000Y0113919D03*
X0074260Y0113919D03*
X0074760Y0143681D03*
X0078500Y0143681D03*
X0082240Y0143681D03*
X0082240Y0153919D03*
X0078500Y0153919D03*
X0074760Y0153919D03*
X0074260Y0202181D03*
X0078000Y0202181D03*
X0081740Y0202181D03*
X0081740Y0212419D03*
X0078000Y0212419D03*
X0074260Y0212419D03*
D11*
X0096800Y0186900D03*
X0095300Y0242900D03*
D12*
X0095300Y0232300D03*
X0095300Y0221700D03*
X0096800Y0176300D03*
X0096800Y0165700D03*
D13*
X0076846Y0167800D03*
X0070154Y0167800D03*
X0067846Y0152300D03*
X0061154Y0152300D03*
X0055846Y0152300D03*
X0049154Y0152300D03*
X0061154Y0144300D03*
X0067846Y0144300D03*
X0069654Y0128800D03*
X0076346Y0128800D03*
X0067846Y0113300D03*
X0061154Y0113300D03*
X0055846Y0113300D03*
X0049154Y0113300D03*
X0061154Y0105300D03*
X0067846Y0105300D03*
X0070154Y0085300D03*
X0076846Y0085300D03*
X0076846Y0186300D03*
X0070154Y0186300D03*
X0067846Y0198800D03*
X0061154Y0198800D03*
X0061154Y0206800D03*
X0055846Y0206800D03*
X0049154Y0206800D03*
X0067846Y0206800D03*
X0070154Y0222300D03*
X0076846Y0222300D03*
X0076846Y0240800D03*
X0070154Y0240800D03*
D14*
X0021500Y0069800D03*
X0031500Y0069800D03*
X0041500Y0069800D03*
X0051500Y0069800D03*
X0061500Y0069800D03*
X0071500Y0069800D03*
X0081500Y0069800D03*
X0091500Y0069800D03*
X0106500Y0069800D03*
X0116500Y0069800D03*
X0126500Y0069800D03*
X0136500Y0069800D03*
X0146500Y0069800D03*
X0156500Y0069800D03*
X0166500Y0069800D03*
X0176500Y0069800D03*
X0186500Y0069800D03*
X0196500Y0069800D03*
X0195500Y0123800D03*
X0195500Y0133800D03*
X0161500Y0259800D03*
X0151500Y0259800D03*
X0141500Y0259800D03*
X0131500Y0259800D03*
X0121500Y0259800D03*
X0111500Y0259800D03*
X0101500Y0259800D03*
X0091500Y0259800D03*
X0071500Y0259800D03*
X0061500Y0259800D03*
X0051500Y0259800D03*
X0041500Y0259800D03*
X0031500Y0259800D03*
X0021500Y0259800D03*
X0021500Y0095300D03*
X0021500Y0085300D03*
D15*
X0179975Y0153457D02*
X0187025Y0153457D01*
X0187025Y0173143D02*
X0179975Y0173143D01*
X0179975Y0193457D02*
X0187025Y0193457D01*
X0187025Y0213143D02*
X0179975Y0213143D01*
X0179975Y0233457D02*
X0187025Y0233457D01*
X0187025Y0253143D02*
X0179975Y0253143D01*
D16*
X0158736Y0240800D03*
X0158736Y0235800D03*
X0158736Y0230800D03*
X0158736Y0225800D03*
X0158736Y0215800D03*
X0158736Y0210800D03*
X0158736Y0205800D03*
X0158736Y0200800D03*
X0138264Y0200800D03*
X0138264Y0205800D03*
X0138264Y0210800D03*
X0138264Y0215800D03*
X0138264Y0225800D03*
X0138264Y0230800D03*
X0138264Y0235800D03*
X0138264Y0240800D03*
X0151264Y0135800D03*
X0151264Y0130800D03*
X0151264Y0125800D03*
X0151264Y0120800D03*
X0171736Y0120800D03*
X0171736Y0125800D03*
X0171736Y0130800D03*
X0171736Y0135800D03*
X0172236Y0095800D03*
X0172236Y0090800D03*
X0172236Y0085800D03*
X0172236Y0080800D03*
X0151764Y0080800D03*
X0151764Y0085800D03*
X0151764Y0090800D03*
X0151764Y0095800D03*
D17*
X0062512Y0085300D03*
X0051488Y0085300D03*
X0043012Y0095300D03*
X0031988Y0095300D03*
X0032488Y0128800D03*
X0043512Y0128800D03*
X0043512Y0167800D03*
X0032488Y0167800D03*
X0032488Y0186300D03*
X0043512Y0186300D03*
X0043512Y0222300D03*
X0032488Y0222300D03*
X0032488Y0240800D03*
X0043512Y0240800D03*
D18*
X0138200Y0190800D03*
X0138200Y0185800D03*
X0138200Y0180800D03*
X0138200Y0175800D03*
X0158800Y0175800D03*
X0158800Y0180800D03*
X0158800Y0185800D03*
X0158800Y0190800D03*
D19*
X0183500Y0131501D03*
X0183500Y0119099D03*
X0184000Y0102501D03*
X0184000Y0090099D03*
D20*
X0043201Y0085300D03*
X0030799Y0085300D03*
D21*
X0076154Y0096300D03*
X0082846Y0096300D03*
X0084346Y0136800D03*
X0077654Y0136800D03*
X0093000Y0145954D03*
X0093000Y0152646D03*
X0101000Y0152646D03*
X0101000Y0145954D03*
X0083346Y0195300D03*
X0076654Y0195300D03*
X0095154Y0206300D03*
X0101846Y0206300D03*
D22*
X0192500Y0112300D02*
X0198500Y0112300D01*
X0198500Y0102300D02*
X0192500Y0102300D01*
X0192500Y0092300D02*
X0198500Y0092300D01*
D23*
X0062000Y0128800D03*
X0057000Y0121300D03*
X0052000Y0128800D03*
X0057000Y0160300D03*
X0052000Y0167800D03*
X0062000Y0167800D03*
X0057000Y0178800D03*
X0052000Y0186300D03*
X0062000Y0186300D03*
X0057000Y0214800D03*
X0052000Y0222300D03*
X0062000Y0222300D03*
X0057000Y0233300D03*
X0052000Y0240800D03*
X0062000Y0240800D03*
D24*
X0172000Y0106300D03*
D25*
X0152000Y0106300D03*
D26*
X0022000Y0128800D03*
X0021500Y0167800D03*
X0021500Y0186300D03*
X0021000Y0222300D03*
X0021000Y0241300D03*
D27*
X0158260Y0102300D03*
X0165740Y0102300D03*
D28*
X0109500Y0134800D03*
D29*
X0129500Y0134800D03*
D30*
X0144000Y0114800D03*
X0149000Y0114800D03*
X0164000Y0094800D03*
X0194000Y0077300D03*
X0109000Y0114800D03*
X0091500Y0102300D03*
X0091500Y0097300D03*
X0089000Y0087300D03*
X0094000Y0087300D03*
X0071500Y0077300D03*
X0066500Y0077300D03*
X0054000Y0097300D03*
X0071500Y0119800D03*
X0076500Y0122300D03*
X0084000Y0129800D03*
X0066500Y0137300D03*
X0086500Y0152300D03*
X0079000Y0159800D03*
X0074000Y0159800D03*
X0096500Y0157300D03*
X0134000Y0162300D03*
X0139000Y0169800D03*
X0139000Y0194800D03*
X0139000Y0219800D03*
X0101500Y0234800D03*
X0099000Y0249800D03*
X0081500Y0237300D03*
X0086500Y0212300D03*
X0084000Y0207300D03*
X0069000Y0212300D03*
X0054000Y0199800D03*
M02*
