G75*
%MOIN*%
%OFA0B0*%
%FSLAX25Y25*%
%IPPOS*%
%LPD*%
%AMOC8*
5,1,8,0,0,1.08239X$1,22.5*
%
%ADD10R,0.02165X0.04724*%
%ADD11R,0.06600X0.06600*%
%ADD12C,0.06600*%
%ADD13R,0.03937X0.04331*%
%ADD14C,0.07400*%
%ADD15C,0.07050*%
%ADD16R,0.08661X0.02362*%
%ADD17R,0.06299X0.07087*%
%ADD18R,0.08700X0.02400*%
%ADD19R,0.03740X0.03543*%
%ADD20R,0.03543X0.03740*%
%ADD21R,0.04331X0.03937*%
%ADD22C,0.06000*%
%ADD23OC8,0.05200*%
%ADD24C,0.10000*%
%ADD25OC8,0.10000*%
%ADD26OC8,0.06000*%
%ADD27R,0.05118X0.05906*%
%ADD28C,0.07500*%
%ADD29OC8,0.07500*%
%ADD30C,0.08600*%
%ADD31C,0.02400*%
%ADD32C,0.05000*%
%ADD33C,0.01000*%
%ADD34C,0.01600*%
%ADD35C,0.04000*%
%ADD36C,0.07600*%
%ADD37C,0.01200*%
%ADD38C,0.07000*%
%ADD39C,0.06600*%
D10*
X0074260Y0103681D03*
X0078000Y0103681D03*
X0081740Y0103681D03*
X0081740Y0113919D03*
X0078000Y0113919D03*
X0074260Y0113919D03*
X0074760Y0143681D03*
X0078500Y0143681D03*
X0082240Y0143681D03*
X0082240Y0153919D03*
X0078500Y0153919D03*
X0074760Y0153919D03*
X0074260Y0202181D03*
X0078000Y0202181D03*
X0081740Y0202181D03*
X0081740Y0212419D03*
X0078000Y0212419D03*
X0074260Y0212419D03*
D11*
X0096800Y0186900D03*
X0095300Y0242900D03*
D12*
X0095300Y0232300D03*
X0095300Y0221700D03*
X0096800Y0176300D03*
X0096800Y0165700D03*
D13*
X0076846Y0167800D03*
X0070154Y0167800D03*
X0067846Y0152300D03*
X0061154Y0152300D03*
X0055846Y0152300D03*
X0049154Y0152300D03*
X0061154Y0144300D03*
X0067846Y0144300D03*
X0069654Y0128800D03*
X0076346Y0128800D03*
X0067846Y0113300D03*
X0061154Y0113300D03*
X0055846Y0113300D03*
X0049154Y0113300D03*
X0061154Y0105300D03*
X0067846Y0105300D03*
X0070154Y0085300D03*
X0076846Y0085300D03*
X0076846Y0186300D03*
X0070154Y0186300D03*
X0067846Y0198800D03*
X0061154Y0198800D03*
X0061154Y0206800D03*
X0055846Y0206800D03*
X0049154Y0206800D03*
X0067846Y0206800D03*
X0070154Y0222300D03*
X0076846Y0222300D03*
X0076846Y0240800D03*
X0070154Y0240800D03*
D14*
X0021500Y0069800D03*
X0031500Y0069800D03*
X0041500Y0069800D03*
X0051500Y0069800D03*
X0061500Y0069800D03*
X0071500Y0069800D03*
X0081500Y0069800D03*
X0091500Y0069800D03*
X0106500Y0069800D03*
X0116500Y0069800D03*
X0126500Y0069800D03*
X0136500Y0069800D03*
X0146500Y0069800D03*
X0156500Y0069800D03*
X0166500Y0069800D03*
X0176500Y0069800D03*
X0186500Y0069800D03*
X0196500Y0069800D03*
X0195500Y0123800D03*
X0195500Y0133800D03*
X0161500Y0259800D03*
X0151500Y0259800D03*
X0141500Y0259800D03*
X0131500Y0259800D03*
X0121500Y0259800D03*
X0111500Y0259800D03*
X0101500Y0259800D03*
X0091500Y0259800D03*
X0071500Y0259800D03*
X0061500Y0259800D03*
X0051500Y0259800D03*
X0041500Y0259800D03*
X0031500Y0259800D03*
X0021500Y0259800D03*
X0021500Y0095300D03*
X0021500Y0085300D03*
D15*
X0179975Y0153457D02*
X0187025Y0153457D01*
X0187025Y0173143D02*
X0179975Y0173143D01*
X0179975Y0193457D02*
X0187025Y0193457D01*
X0187025Y0213143D02*
X0179975Y0213143D01*
X0179975Y0233457D02*
X0187025Y0233457D01*
X0187025Y0253143D02*
X0179975Y0253143D01*
D16*
X0158736Y0240800D03*
X0158736Y0235800D03*
X0158736Y0230800D03*
X0158736Y0225800D03*
X0158736Y0215800D03*
X0158736Y0210800D03*
X0158736Y0205800D03*
X0158736Y0200800D03*
X0138264Y0200800D03*
X0138264Y0205800D03*
X0138264Y0210800D03*
X0138264Y0215800D03*
X0138264Y0225800D03*
X0138264Y0230800D03*
X0138264Y0235800D03*
X0138264Y0240800D03*
X0151264Y0135800D03*
X0151264Y0130800D03*
X0151264Y0125800D03*
X0151264Y0120800D03*
X0171736Y0120800D03*
X0171736Y0125800D03*
X0171736Y0130800D03*
X0171736Y0135800D03*
X0172236Y0095800D03*
X0172236Y0090800D03*
X0172236Y0085800D03*
X0172236Y0080800D03*
X0151764Y0080800D03*
X0151764Y0085800D03*
X0151764Y0090800D03*
X0151764Y0095800D03*
D17*
X0062512Y0085300D03*
X0051488Y0085300D03*
X0043012Y0095300D03*
X0031988Y0095300D03*
X0032488Y0128800D03*
X0043512Y0128800D03*
X0043512Y0167800D03*
X0032488Y0167800D03*
X0032488Y0186300D03*
X0043512Y0186300D03*
X0043512Y0222300D03*
X0032488Y0222300D03*
X0032488Y0240800D03*
X0043512Y0240800D03*
D18*
X0138200Y0190800D03*
X0138200Y0185800D03*
X0138200Y0180800D03*
X0138200Y0175800D03*
X0158800Y0175800D03*
X0158800Y0180800D03*
X0158800Y0185800D03*
X0158800Y0190800D03*
D19*
X0183500Y0131501D03*
X0183500Y0119099D03*
X0184000Y0102501D03*
X0184000Y0090099D03*
D20*
X0043201Y0085300D03*
X0030799Y0085300D03*
D21*
X0076154Y0096300D03*
X0082846Y0096300D03*
X0084346Y0136800D03*
X0077654Y0136800D03*
X0093000Y0145954D03*
X0093000Y0152646D03*
X0101000Y0152646D03*
X0101000Y0145954D03*
X0083346Y0195300D03*
X0076654Y0195300D03*
X0095154Y0206300D03*
X0101846Y0206300D03*
D22*
X0192500Y0112300D02*
X0198500Y0112300D01*
X0198500Y0102300D02*
X0192500Y0102300D01*
X0192500Y0092300D02*
X0198500Y0092300D01*
D23*
X0062000Y0128800D03*
X0057000Y0121300D03*
X0052000Y0128800D03*
X0057000Y0160300D03*
X0052000Y0167800D03*
X0062000Y0167800D03*
X0057000Y0178800D03*
X0052000Y0186300D03*
X0062000Y0186300D03*
X0057000Y0214800D03*
X0052000Y0222300D03*
X0062000Y0222300D03*
X0057000Y0233300D03*
X0052000Y0240800D03*
X0062000Y0240800D03*
D24*
X0172000Y0106300D03*
D25*
X0152000Y0106300D03*
D26*
X0022000Y0128800D03*
X0021500Y0167800D03*
X0021500Y0186300D03*
X0021000Y0222300D03*
X0021000Y0241300D03*
D27*
X0158260Y0102300D03*
X0165740Y0102300D03*
D28*
X0109500Y0134800D03*
D29*
X0129500Y0134800D03*
D30*
X0129000Y0153457D02*
X0126000Y0153457D01*
X0126000Y0193300D01*
X0126000Y0210800D01*
X0138264Y0210800D01*
X0126000Y0210800D02*
X0126000Y0234800D01*
X0126000Y0235800D01*
X0128500Y0235800D01*
X0138264Y0235800D01*
X0129000Y0153457D02*
X0153500Y0153457D01*
X0151264Y0151221D01*
X0151264Y0135800D01*
X0151264Y0130800D01*
X0151500Y0130800D01*
X0160500Y0130800D01*
X0162000Y0129300D01*
X0162000Y0116300D01*
X0152000Y0106300D01*
X0152000Y0096036D01*
X0151764Y0095800D01*
X0151764Y0090800D01*
X0172236Y0085800D02*
X0174000Y0085800D01*
X0179701Y0085800D01*
X0184000Y0090099D01*
X0186201Y0092300D01*
X0195500Y0092300D01*
X0195500Y0102300D02*
X0184201Y0102300D01*
X0184000Y0102501D01*
X0175799Y0102501D01*
X0172000Y0106300D01*
X0172278Y0106303D01*
X0172556Y0106313D01*
X0172833Y0106330D01*
X0173110Y0106354D01*
X0173386Y0106384D01*
X0173662Y0106421D01*
X0173936Y0106464D01*
X0174209Y0106514D01*
X0174482Y0106571D01*
X0174752Y0106634D01*
X0175021Y0106704D01*
X0175288Y0106780D01*
X0175554Y0106863D01*
X0175817Y0106952D01*
X0176078Y0107047D01*
X0176337Y0107149D01*
X0176593Y0107257D01*
X0176846Y0107371D01*
X0177097Y0107491D01*
X0177344Y0107617D01*
X0177589Y0107749D01*
X0177830Y0107887D01*
X0178068Y0108031D01*
X0178302Y0108181D01*
X0178533Y0108336D01*
X0178760Y0108496D01*
X0178982Y0108662D01*
X0179201Y0108834D01*
X0179416Y0109010D01*
X0179626Y0109192D01*
X0179832Y0109379D01*
X0180033Y0109571D01*
X0180229Y0109767D01*
X0180421Y0109968D01*
X0180608Y0110174D01*
X0180790Y0110384D01*
X0180966Y0110599D01*
X0181138Y0110818D01*
X0181304Y0111040D01*
X0181464Y0111267D01*
X0181619Y0111498D01*
X0181769Y0111732D01*
X0181913Y0111970D01*
X0182051Y0112211D01*
X0182183Y0112456D01*
X0182309Y0112703D01*
X0182429Y0112954D01*
X0182543Y0113207D01*
X0182651Y0113463D01*
X0182753Y0113722D01*
X0182848Y0113983D01*
X0182937Y0114246D01*
X0183020Y0114512D01*
X0183096Y0114779D01*
X0183166Y0115048D01*
X0183229Y0115318D01*
X0183286Y0115591D01*
X0183336Y0115864D01*
X0183379Y0116138D01*
X0183416Y0116414D01*
X0183446Y0116690D01*
X0183470Y0116967D01*
X0183487Y0117244D01*
X0183497Y0117522D01*
X0183500Y0117800D01*
X0183500Y0119099D01*
X0183502Y0119233D01*
X0183508Y0119367D01*
X0183517Y0119501D01*
X0183531Y0119635D01*
X0183548Y0119768D01*
X0183569Y0119901D01*
X0183594Y0120033D01*
X0183622Y0120164D01*
X0183654Y0120294D01*
X0183690Y0120423D01*
X0183730Y0120552D01*
X0183773Y0120679D01*
X0183820Y0120805D01*
X0183871Y0120929D01*
X0183925Y0121052D01*
X0183982Y0121173D01*
X0184043Y0121293D01*
X0184108Y0121411D01*
X0184175Y0121527D01*
X0184246Y0121641D01*
X0184320Y0121752D01*
X0184398Y0121862D01*
X0184478Y0121970D01*
X0184562Y0122075D01*
X0184648Y0122178D01*
X0184738Y0122278D01*
X0184830Y0122375D01*
X0184925Y0122470D01*
X0185022Y0122562D01*
X0185122Y0122652D01*
X0185225Y0122738D01*
X0185330Y0122822D01*
X0185438Y0122902D01*
X0185548Y0122980D01*
X0185659Y0123054D01*
X0185773Y0123125D01*
X0185889Y0123192D01*
X0186007Y0123257D01*
X0186127Y0123318D01*
X0186248Y0123375D01*
X0186371Y0123429D01*
X0186495Y0123480D01*
X0186621Y0123527D01*
X0186748Y0123570D01*
X0186877Y0123610D01*
X0187006Y0123646D01*
X0187136Y0123678D01*
X0187267Y0123706D01*
X0187399Y0123731D01*
X0187532Y0123752D01*
X0187665Y0123769D01*
X0187799Y0123783D01*
X0187933Y0123792D01*
X0188067Y0123798D01*
X0188201Y0123800D01*
X0195500Y0123800D01*
X0171736Y0125800D02*
X0171736Y0120800D01*
X0171736Y0125800D02*
X0171736Y0130800D01*
X0171736Y0135800D01*
X0183500Y0153457D02*
X0153500Y0153457D01*
D31*
X0158800Y0175800D02*
X0158800Y0178300D01*
X0158800Y0180800D01*
X0158800Y0185800D02*
X0158800Y0190800D01*
X0138200Y0190800D02*
X0128500Y0190800D01*
X0128500Y0188300D01*
X0126000Y0188300D01*
X0126000Y0193300D01*
D32*
X0158736Y0210800D02*
X0158736Y0215800D01*
X0158736Y0225800D02*
X0158736Y0230800D01*
X0138264Y0230800D02*
X0138264Y0235800D01*
X0138264Y0240800D01*
X0128500Y0235800D02*
X0128264Y0236036D01*
X0126750Y0235050D02*
X0128500Y0233300D01*
X0126750Y0235050D02*
X0125764Y0236036D01*
X0185799Y0133800D02*
X0195500Y0133800D01*
X0185799Y0133800D02*
X0183500Y0131501D01*
X0172437Y0131501D01*
X0171736Y0130800D01*
D33*
X0151500Y0130800D02*
X0151500Y0124800D01*
X0151264Y0125800D01*
X0151264Y0120800D02*
X0149000Y0119800D01*
X0109000Y0119800D01*
X0091500Y0102300D01*
X0091500Y0097300D02*
X0109000Y0114800D01*
X0116500Y0114800D02*
X0089000Y0087300D01*
X0086500Y0084800D02*
X0089000Y0082300D01*
X0141500Y0082300D01*
X0149000Y0089800D01*
X0151764Y0090800D01*
X0154000Y0087300D01*
X0166500Y0074800D01*
X0166500Y0069800D01*
X0172236Y0080800D02*
X0174000Y0079800D01*
X0174000Y0085800D01*
X0174000Y0089800D01*
X0172236Y0090800D01*
X0174000Y0089800D02*
X0174000Y0094800D01*
X0172236Y0095800D01*
X0166500Y0097300D02*
X0166500Y0102300D01*
X0165740Y0102300D01*
X0166500Y0102300D02*
X0169000Y0104800D01*
X0172000Y0106300D01*
X0166500Y0097300D02*
X0164000Y0094800D01*
X0158260Y0102300D02*
X0154000Y0102300D01*
X0152000Y0106300D01*
X0149000Y0114800D02*
X0131500Y0097300D01*
X0104000Y0097300D01*
X0094000Y0087300D01*
X0086500Y0084800D02*
X0076500Y0084800D01*
X0076846Y0085300D01*
X0076500Y0087300D01*
X0076500Y0094800D01*
X0076154Y0096300D01*
X0074000Y0097300D01*
X0054000Y0097300D01*
X0043012Y0095300D02*
X0041500Y0097300D01*
X0041500Y0114800D01*
X0034000Y0122300D01*
X0034000Y0127300D01*
X0032488Y0128800D01*
X0043512Y0128800D02*
X0044000Y0129800D01*
X0051500Y0129800D01*
X0052000Y0128800D01*
X0056500Y0127300D02*
X0056500Y0137300D01*
X0066500Y0137300D01*
X0067846Y0144300D02*
X0069000Y0144800D01*
X0074000Y0144800D01*
X0074760Y0143681D01*
X0078500Y0143681D02*
X0079000Y0144800D01*
X0074000Y0149800D01*
X0071500Y0149800D01*
X0069000Y0152300D01*
X0067846Y0152300D01*
X0069000Y0152300D02*
X0069000Y0159800D01*
X0076500Y0167300D01*
X0076846Y0167800D01*
X0079000Y0159800D02*
X0081500Y0159800D01*
X0079000Y0157300D01*
X0079000Y0154800D01*
X0078500Y0153919D01*
X0081500Y0152300D02*
X0082240Y0153919D01*
X0081500Y0152300D02*
X0086500Y0152300D01*
X0091500Y0152300D02*
X0093000Y0152646D01*
X0091500Y0152300D02*
X0084000Y0159800D01*
X0081500Y0159800D01*
X0074760Y0153919D02*
X0074000Y0154800D01*
X0074000Y0159800D01*
X0061500Y0152300D02*
X0061154Y0152300D01*
X0056500Y0152300D01*
X0055846Y0152300D01*
X0056500Y0152300D02*
X0056500Y0159800D01*
X0057000Y0160300D01*
X0061500Y0152300D02*
X0061500Y0144800D01*
X0061154Y0144300D01*
X0056500Y0144800D02*
X0056500Y0137300D01*
X0056500Y0144800D02*
X0049000Y0152300D01*
X0049154Y0152300D01*
X0062000Y0128800D02*
X0064000Y0129800D01*
X0069000Y0129800D01*
X0069654Y0128800D01*
X0071500Y0124800D02*
X0066500Y0119800D01*
X0066500Y0114800D01*
X0067846Y0113300D01*
X0069000Y0112300D01*
X0071500Y0109800D01*
X0074000Y0109800D01*
X0079000Y0104800D01*
X0078000Y0103681D01*
X0079000Y0102300D01*
X0076500Y0099800D01*
X0076500Y0097300D01*
X0076154Y0096300D01*
X0081500Y0097300D02*
X0081500Y0102300D01*
X0081740Y0103681D01*
X0081500Y0104800D01*
X0111500Y0134800D01*
X0109500Y0134800D01*
X0109000Y0134800D01*
X0111500Y0134800D02*
X0101500Y0144800D01*
X0101000Y0145954D01*
X0101500Y0147300D01*
X0104000Y0147300D01*
X0106500Y0149800D01*
X0106500Y0157300D01*
X0099000Y0164800D01*
X0096800Y0165700D01*
X0096500Y0157300D02*
X0099000Y0154800D01*
X0099000Y0152300D01*
X0101000Y0152646D01*
X0099000Y0147300D02*
X0094000Y0147300D01*
X0093000Y0145954D01*
X0094000Y0144800D01*
X0086500Y0137300D01*
X0084346Y0136800D01*
X0086500Y0137300D02*
X0081500Y0142300D01*
X0082240Y0143681D01*
X0079000Y0142300D02*
X0078500Y0143681D01*
X0079000Y0142300D02*
X0079000Y0137300D01*
X0077654Y0136800D01*
X0076500Y0137300D01*
X0076500Y0129800D01*
X0076346Y0128800D01*
X0076500Y0127300D01*
X0074000Y0124800D01*
X0071500Y0124800D01*
X0071500Y0119800D02*
X0074000Y0117300D01*
X0074000Y0114800D01*
X0074260Y0113919D01*
X0078000Y0113919D02*
X0079000Y0114800D01*
X0079000Y0119800D01*
X0076500Y0122300D01*
X0081500Y0127300D02*
X0084000Y0129800D01*
X0081500Y0127300D02*
X0081500Y0114800D01*
X0081740Y0113919D01*
X0081500Y0097300D02*
X0082846Y0096300D01*
X0071500Y0084800D02*
X0070154Y0085300D01*
X0071500Y0084800D02*
X0071500Y0077300D01*
X0066500Y0077300D02*
X0059000Y0077300D01*
X0051500Y0069800D01*
X0049154Y0113300D02*
X0049000Y0114800D01*
X0049000Y0119800D01*
X0056500Y0127300D01*
X0099000Y0147300D02*
X0101000Y0145954D01*
X0129000Y0153457D02*
X0129000Y0134800D01*
X0129500Y0134800D01*
X0116500Y0114800D02*
X0144000Y0114800D01*
X0151764Y0090800D02*
X0151500Y0087300D01*
X0151500Y0084800D01*
X0151764Y0085800D01*
X0151764Y0080800D02*
X0151500Y0079800D01*
X0146500Y0079800D01*
X0136500Y0069800D01*
X0186500Y0069800D02*
X0194000Y0077300D01*
X0134000Y0162300D02*
X0134000Y0169800D01*
X0136500Y0172300D01*
X0136500Y0174800D01*
X0138200Y0175800D01*
X0139000Y0179800D02*
X0138200Y0180800D01*
X0139000Y0179800D02*
X0144000Y0179800D01*
X0144000Y0172300D01*
X0141500Y0169800D01*
X0139000Y0169800D01*
X0139000Y0194800D02*
X0139000Y0199800D01*
X0138264Y0200800D01*
X0138264Y0205800D02*
X0138500Y0205800D01*
X0138500Y0207050D01*
X0138264Y0210800D01*
X0138500Y0214550D01*
X0138500Y0215800D01*
X0138264Y0215800D01*
X0139000Y0219800D02*
X0139000Y0224800D01*
X0138264Y0225800D01*
X0126750Y0235050D02*
X0126500Y0234800D01*
X0126000Y0234800D01*
X0121500Y0244800D02*
X0096500Y0219800D01*
X0095300Y0221700D01*
X0096500Y0219800D02*
X0096500Y0207300D01*
X0095154Y0206300D01*
X0094000Y0204800D01*
X0091500Y0202300D01*
X0081500Y0202300D01*
X0081740Y0202181D01*
X0081500Y0202300D02*
X0081500Y0194800D01*
X0083346Y0195300D01*
X0076654Y0195300D02*
X0076500Y0194800D01*
X0076500Y0187300D01*
X0076846Y0186300D01*
X0076500Y0187300D02*
X0079000Y0187300D01*
X0079000Y0202300D01*
X0078000Y0202181D01*
X0079000Y0202300D02*
X0079000Y0204800D01*
X0076500Y0207300D01*
X0069000Y0207300D01*
X0067846Y0206800D01*
X0069000Y0207300D02*
X0064000Y0212300D01*
X0069000Y0217300D01*
X0071500Y0217300D01*
X0076500Y0222300D01*
X0076846Y0222300D01*
X0076500Y0222300D02*
X0081500Y0227300D01*
X0099000Y0227300D01*
X0106500Y0234800D01*
X0106500Y0237300D01*
X0099000Y0244800D01*
X0104000Y0249800D01*
X0104000Y0259800D01*
X0101500Y0259800D01*
X0104000Y0259800D02*
X0111500Y0259800D01*
X0121500Y0259800D02*
X0121500Y0244800D01*
X0101500Y0234800D02*
X0099000Y0237300D01*
X0081500Y0237300D01*
X0076846Y0240800D02*
X0076500Y0242300D01*
X0094000Y0242300D01*
X0095300Y0242900D01*
X0096500Y0244800D01*
X0099000Y0244800D01*
X0099000Y0249800D02*
X0051500Y0249800D01*
X0041500Y0259800D01*
X0069000Y0212300D02*
X0074000Y0212300D01*
X0074260Y0212419D01*
X0078000Y0212419D02*
X0079000Y0212300D01*
X0079000Y0209800D01*
X0081500Y0207300D01*
X0084000Y0207300D01*
X0081500Y0212300D02*
X0081740Y0212419D01*
X0081500Y0212300D02*
X0086500Y0212300D01*
X0101846Y0206300D02*
X0104000Y0207300D01*
X0099000Y0187300D02*
X0096800Y0186900D01*
X0096500Y0187300D01*
X0079000Y0187300D01*
X0054000Y0199800D02*
X0049000Y0204800D01*
X0049154Y0206800D01*
D34*
X0055846Y0206800D02*
X0055846Y0213646D01*
X0057000Y0214800D01*
X0052000Y0222300D02*
X0043512Y0222300D01*
X0057000Y0233300D02*
X0094300Y0233300D01*
X0095300Y0232300D01*
X0097399Y0227000D02*
X0098529Y0227468D01*
X0100132Y0229071D01*
X0100683Y0230400D01*
X0102375Y0230400D01*
X0103440Y0230841D01*
X0098830Y0226231D01*
X0098529Y0226532D01*
X0097399Y0227000D01*
X0097820Y0226826D02*
X0099425Y0226826D01*
X0099485Y0228424D02*
X0101023Y0228424D01*
X0100526Y0230023D02*
X0102622Y0230023D01*
X0105459Y0232860D02*
X0105900Y0233925D01*
X0105900Y0235675D01*
X0105230Y0237292D01*
X0103992Y0238530D01*
X0102375Y0239200D01*
X0101201Y0239200D01*
X0100643Y0239758D01*
X0100400Y0239859D01*
X0100400Y0242900D01*
X0100400Y0245617D01*
X0101492Y0246070D01*
X0102730Y0247308D01*
X0103400Y0248925D01*
X0103400Y0250675D01*
X0102730Y0252292D01*
X0101492Y0253530D01*
X0099875Y0254200D01*
X0098125Y0254200D01*
X0096508Y0253530D01*
X0095677Y0252700D01*
X0089446Y0252700D01*
X0089449Y0254047D01*
X0090287Y0253700D01*
X0092713Y0253700D01*
X0094955Y0254629D01*
X0096671Y0256345D01*
X0096868Y0256819D01*
X0097305Y0256217D01*
X0097917Y0255605D01*
X0098617Y0255096D01*
X0099389Y0254703D01*
X0100212Y0254435D01*
X0101067Y0254300D01*
X0101300Y0254300D01*
X0101300Y0259600D01*
X0101700Y0259600D01*
X0101700Y0260000D01*
X0106000Y0260000D01*
X0111300Y0260000D01*
X0111300Y0259600D01*
X0101700Y0259600D01*
X0101700Y0254300D01*
X0101933Y0254300D01*
X0102788Y0254435D01*
X0103611Y0254703D01*
X0104383Y0255096D01*
X0105083Y0255605D01*
X0105695Y0256217D01*
X0106204Y0256917D01*
X0106500Y0257498D01*
X0106796Y0256917D01*
X0107305Y0256217D01*
X0107917Y0255605D01*
X0108617Y0255096D01*
X0109389Y0254703D01*
X0110212Y0254435D01*
X0111067Y0254300D01*
X0111300Y0254300D01*
X0111300Y0259600D01*
X0111700Y0259600D01*
X0111700Y0254300D01*
X0111933Y0254300D01*
X0112788Y0254435D01*
X0113611Y0254703D01*
X0114383Y0255096D01*
X0115083Y0255605D01*
X0115695Y0256217D01*
X0116132Y0256819D01*
X0116329Y0256345D01*
X0118045Y0254629D01*
X0118600Y0254399D01*
X0118600Y0246001D01*
X0105459Y0232860D01*
X0105608Y0233220D02*
X0105819Y0233220D01*
X0105900Y0234818D02*
X0107417Y0234818D01*
X0109016Y0236417D02*
X0105593Y0236417D01*
X0104507Y0238015D02*
X0110614Y0238015D01*
X0112213Y0239614D02*
X0100787Y0239614D01*
X0100400Y0241212D02*
X0113811Y0241212D01*
X0115410Y0242811D02*
X0100400Y0242811D01*
X0100400Y0242900D02*
X0095300Y0242900D01*
X0100400Y0242900D01*
X0100400Y0244409D02*
X0117008Y0244409D01*
X0118600Y0246008D02*
X0101343Y0246008D01*
X0102854Y0247606D02*
X0118600Y0247606D01*
X0118600Y0249205D02*
X0103400Y0249205D01*
X0103347Y0250803D02*
X0118600Y0250803D01*
X0118600Y0252402D02*
X0102621Y0252402D01*
X0100357Y0254001D02*
X0118600Y0254001D01*
X0117074Y0255599D02*
X0115075Y0255599D01*
X0111700Y0255599D02*
X0111300Y0255599D01*
X0111300Y0257198D02*
X0111700Y0257198D01*
X0111700Y0258796D02*
X0111300Y0258796D01*
X0107925Y0255599D02*
X0105075Y0255599D01*
X0106347Y0257198D02*
X0106653Y0257198D01*
X0101700Y0257198D02*
X0101300Y0257198D01*
X0101300Y0258796D02*
X0101700Y0258796D01*
X0101700Y0255599D02*
X0101300Y0255599D01*
X0097925Y0255599D02*
X0095926Y0255599D01*
X0097643Y0254001D02*
X0093439Y0254001D01*
X0089561Y0254001D02*
X0089449Y0254001D01*
X0089433Y0246900D02*
X0090326Y0246900D01*
X0090323Y0246895D01*
X0090200Y0246437D01*
X0090200Y0242900D01*
X0095300Y0242900D01*
X0095300Y0242900D01*
X0095300Y0242900D01*
X0090200Y0242900D01*
X0090200Y0240200D01*
X0089418Y0240200D01*
X0089433Y0246900D01*
X0089431Y0246008D02*
X0090200Y0246008D01*
X0090200Y0244409D02*
X0089427Y0244409D01*
X0089424Y0242811D02*
X0090200Y0242811D01*
X0090200Y0241212D02*
X0089420Y0241212D01*
X0070154Y0240800D02*
X0062000Y0240800D01*
X0052000Y0240800D02*
X0043512Y0240800D01*
X0062000Y0222300D02*
X0070154Y0222300D01*
X0061154Y0206800D02*
X0055846Y0206800D01*
X0061154Y0206800D02*
X0061154Y0198800D01*
X0067846Y0198800D02*
X0071228Y0202181D01*
X0074260Y0202181D01*
X0089324Y0199400D02*
X0092077Y0199400D01*
X0093143Y0199841D01*
X0095233Y0201931D01*
X0097796Y0201931D01*
X0098678Y0202297D01*
X0099025Y0202644D01*
X0099444Y0202531D01*
X0101662Y0202531D01*
X0101662Y0206116D01*
X0102031Y0206116D01*
X0102031Y0206484D01*
X0105812Y0206484D01*
X0105812Y0208505D01*
X0105689Y0208963D01*
X0105452Y0209374D01*
X0105117Y0209709D01*
X0104707Y0209946D01*
X0104249Y0210068D01*
X0102031Y0210068D01*
X0102031Y0206484D01*
X0101662Y0206484D01*
X0101662Y0210068D01*
X0099444Y0210068D01*
X0099400Y0210057D01*
X0099400Y0217739D01*
X0100132Y0218471D01*
X0100740Y0219939D01*
X0123958Y0243157D01*
X0124400Y0244223D01*
X0124400Y0254399D01*
X0124955Y0254629D01*
X0126500Y0256173D01*
X0128045Y0254629D01*
X0130287Y0253700D01*
X0132713Y0253700D01*
X0134955Y0254629D01*
X0136500Y0256173D01*
X0138045Y0254629D01*
X0140287Y0253700D01*
X0142713Y0253700D01*
X0144955Y0254629D01*
X0146500Y0256173D01*
X0148045Y0254629D01*
X0150287Y0253700D01*
X0152713Y0253700D01*
X0154955Y0254629D01*
X0156500Y0256173D01*
X0158045Y0254629D01*
X0160287Y0253700D01*
X0162713Y0253700D01*
X0164955Y0254629D01*
X0166671Y0256345D01*
X0167600Y0258587D01*
X0167600Y0261013D01*
X0166671Y0263255D01*
X0166127Y0263800D01*
X0206000Y0263800D01*
X0206000Y0065800D01*
X0201127Y0065800D01*
X0201671Y0066345D01*
X0202600Y0068587D01*
X0202600Y0071013D01*
X0201671Y0073255D01*
X0199955Y0074971D01*
X0198114Y0075734D01*
X0198400Y0076425D01*
X0198400Y0078175D01*
X0197730Y0079792D01*
X0196492Y0081030D01*
X0194875Y0081700D01*
X0193125Y0081700D01*
X0191508Y0081030D01*
X0190270Y0079792D01*
X0189600Y0078175D01*
X0189600Y0077001D01*
X0188269Y0075670D01*
X0187713Y0075900D01*
X0185287Y0075900D01*
X0183045Y0074971D01*
X0181500Y0073427D01*
X0179955Y0074971D01*
X0177713Y0075900D01*
X0175287Y0075900D01*
X0173045Y0074971D01*
X0171329Y0073255D01*
X0171132Y0072781D01*
X0170695Y0073383D01*
X0170083Y0073995D01*
X0169383Y0074504D01*
X0168611Y0074897D01*
X0167788Y0075165D01*
X0166933Y0075300D01*
X0166700Y0075300D01*
X0166700Y0070000D01*
X0166300Y0070000D01*
X0166300Y0075300D01*
X0166067Y0075300D01*
X0165212Y0075165D01*
X0164389Y0074897D01*
X0163617Y0074504D01*
X0162917Y0073995D01*
X0162305Y0073383D01*
X0161868Y0072781D01*
X0161671Y0073255D01*
X0159955Y0074971D01*
X0157713Y0075900D01*
X0155287Y0075900D01*
X0153045Y0074971D01*
X0151500Y0073427D01*
X0149955Y0074971D01*
X0147713Y0075900D01*
X0146701Y0075900D01*
X0147701Y0076900D01*
X0151124Y0076900D01*
X0151318Y0076849D01*
X0151696Y0076900D01*
X0152077Y0076900D01*
X0152262Y0076977D01*
X0152461Y0077004D01*
X0152791Y0077196D01*
X0152847Y0077219D01*
X0156572Y0077219D01*
X0157454Y0077584D01*
X0158129Y0078259D01*
X0158494Y0079141D01*
X0158494Y0082458D01*
X0158129Y0083341D01*
X0157689Y0083781D01*
X0157772Y0083924D01*
X0157894Y0084382D01*
X0157894Y0085800D01*
X0157894Y0087218D01*
X0157772Y0087676D01*
X0157535Y0088086D01*
X0157321Y0088300D01*
X0157535Y0088514D01*
X0157772Y0088924D01*
X0157894Y0089382D01*
X0157894Y0090800D01*
X0157894Y0092218D01*
X0157772Y0092676D01*
X0157535Y0093086D01*
X0157321Y0093300D01*
X0157535Y0093514D01*
X0157772Y0093924D01*
X0157894Y0094382D01*
X0157894Y0095800D01*
X0157894Y0097218D01*
X0157780Y0097644D01*
X0157780Y0101820D01*
X0158739Y0101820D01*
X0158739Y0097547D01*
X0160525Y0097547D01*
X0160270Y0097292D01*
X0159600Y0095675D01*
X0159600Y0093925D01*
X0160270Y0092308D01*
X0161508Y0091070D01*
X0163125Y0090400D01*
X0164875Y0090400D01*
X0165506Y0090661D01*
X0165506Y0089141D01*
X0165854Y0088300D01*
X0165506Y0087458D01*
X0165506Y0084141D01*
X0165854Y0083300D01*
X0165506Y0082458D01*
X0165506Y0079141D01*
X0165871Y0078259D01*
X0166546Y0077584D01*
X0167428Y0077219D01*
X0172653Y0077219D01*
X0172725Y0077189D01*
X0173071Y0076993D01*
X0173254Y0076970D01*
X0173423Y0076900D01*
X0173821Y0076900D01*
X0174216Y0076851D01*
X0174393Y0076900D01*
X0174577Y0076900D01*
X0174945Y0077052D01*
X0175328Y0077158D01*
X0175406Y0077219D01*
X0177044Y0077219D01*
X0177926Y0077584D01*
X0178602Y0078259D01*
X0178950Y0079100D01*
X0181034Y0079100D01*
X0183496Y0080120D01*
X0185381Y0082005D01*
X0188976Y0085600D01*
X0196833Y0085600D01*
X0199295Y0086620D01*
X0199576Y0086901D01*
X0201559Y0087722D01*
X0203078Y0089241D01*
X0203900Y0091226D01*
X0203900Y0093374D01*
X0203078Y0095359D01*
X0201559Y0096878D01*
X0200540Y0097300D01*
X0201559Y0097722D01*
X0203078Y0099241D01*
X0203900Y0101226D01*
X0203900Y0103374D01*
X0203078Y0105359D01*
X0201559Y0106878D01*
X0200540Y0107300D01*
X0201559Y0107722D01*
X0203078Y0109241D01*
X0203900Y0111226D01*
X0203900Y0113374D01*
X0203078Y0115359D01*
X0201559Y0116878D01*
X0199574Y0117700D01*
X0198281Y0117700D01*
X0199295Y0118120D01*
X0201180Y0120005D01*
X0202200Y0122467D01*
X0202200Y0125133D01*
X0201180Y0127595D01*
X0199551Y0129224D01*
X0200671Y0130345D01*
X0201600Y0132587D01*
X0201600Y0135013D01*
X0200671Y0137255D01*
X0198955Y0138971D01*
X0196713Y0139900D01*
X0194287Y0139900D01*
X0192045Y0138971D01*
X0191773Y0138700D01*
X0184825Y0138700D01*
X0183024Y0137954D01*
X0181645Y0136576D01*
X0181470Y0136401D01*
X0178467Y0136401D01*
X0178467Y0137458D01*
X0178102Y0138341D01*
X0177819Y0138623D01*
X0177416Y0139595D01*
X0175531Y0141480D01*
X0173069Y0142500D01*
X0170403Y0142500D01*
X0167941Y0141480D01*
X0166056Y0139595D01*
X0165654Y0138623D01*
X0165371Y0138341D01*
X0165006Y0137458D01*
X0165006Y0134141D01*
X0165036Y0134067D01*
X0165036Y0132533D01*
X0165006Y0132458D01*
X0165006Y0129141D01*
X0165036Y0129067D01*
X0165036Y0127533D01*
X0165006Y0127458D01*
X0165006Y0124141D01*
X0165036Y0124067D01*
X0165036Y0122533D01*
X0165006Y0122458D01*
X0165006Y0119141D01*
X0165371Y0118259D01*
X0165654Y0117977D01*
X0166056Y0117005D01*
X0167941Y0115120D01*
X0170403Y0114100D01*
X0173069Y0114100D01*
X0175531Y0115120D01*
X0176457Y0116045D01*
X0176435Y0115963D01*
X0175808Y0114878D01*
X0174922Y0113992D01*
X0174022Y0113472D01*
X0173472Y0113700D01*
X0170528Y0113700D01*
X0167808Y0112573D01*
X0165727Y0110492D01*
X0164600Y0107772D01*
X0164600Y0107653D01*
X0162704Y0107653D01*
X0161822Y0107287D01*
X0161475Y0106941D01*
X0161056Y0107053D01*
X0158800Y0107053D01*
X0158800Y0109117D01*
X0154817Y0113100D01*
X0153058Y0113100D01*
X0153400Y0113925D01*
X0153400Y0115675D01*
X0152761Y0117219D01*
X0156072Y0117219D01*
X0156954Y0117584D01*
X0157629Y0118259D01*
X0157994Y0119141D01*
X0157994Y0122458D01*
X0157629Y0123341D01*
X0157189Y0123781D01*
X0157272Y0123924D01*
X0157394Y0124382D01*
X0157394Y0125800D01*
X0157394Y0127218D01*
X0157272Y0127676D01*
X0157035Y0128086D01*
X0156821Y0128300D01*
X0157035Y0128514D01*
X0157272Y0128924D01*
X0157394Y0129382D01*
X0157394Y0130800D01*
X0157394Y0132218D01*
X0157272Y0132676D01*
X0157035Y0133086D01*
X0156821Y0133300D01*
X0157035Y0133514D01*
X0157272Y0133924D01*
X0157394Y0134382D01*
X0157394Y0135800D01*
X0157394Y0137218D01*
X0157272Y0137676D01*
X0157035Y0138086D01*
X0156700Y0138421D01*
X0156289Y0138658D01*
X0155831Y0138781D01*
X0151264Y0138781D01*
X0151264Y0135800D01*
X0157394Y0135800D01*
X0151264Y0135800D01*
X0151264Y0135800D01*
X0151264Y0135800D01*
X0151264Y0132819D01*
X0151264Y0130800D01*
X0157394Y0130800D01*
X0151264Y0130800D01*
X0151264Y0130800D01*
X0151264Y0125800D01*
X0157394Y0125800D01*
X0151264Y0125800D01*
X0151264Y0125800D01*
X0151264Y0125800D01*
X0151264Y0128781D01*
X0151264Y0130800D01*
X0151264Y0130800D01*
X0151264Y0130800D01*
X0151264Y0135800D01*
X0151264Y0135800D01*
X0151264Y0138781D01*
X0146696Y0138781D01*
X0146238Y0138658D01*
X0145828Y0138421D01*
X0145493Y0138086D01*
X0145256Y0137676D01*
X0145133Y0137218D01*
X0145133Y0135800D01*
X0151264Y0135800D01*
X0145133Y0135800D01*
X0145133Y0134382D01*
X0145256Y0133924D01*
X0145493Y0133514D01*
X0145706Y0133300D01*
X0145493Y0133086D01*
X0145256Y0132676D01*
X0145133Y0132218D01*
X0145133Y0130800D01*
X0151264Y0130800D01*
X0145133Y0130800D01*
X0145133Y0129382D01*
X0145256Y0128924D01*
X0145493Y0128514D01*
X0145706Y0128300D01*
X0145493Y0128086D01*
X0145256Y0127676D01*
X0145133Y0127218D01*
X0145133Y0125800D01*
X0151264Y0125800D01*
X0145133Y0125800D01*
X0145133Y0124382D01*
X0145256Y0123924D01*
X0145339Y0123781D01*
X0144898Y0123341D01*
X0144633Y0122700D01*
X0108423Y0122700D01*
X0107357Y0122258D01*
X0091799Y0106700D01*
X0090625Y0106700D01*
X0089111Y0106073D01*
X0089116Y0108315D01*
X0109451Y0128650D01*
X0110723Y0128650D01*
X0112984Y0129586D01*
X0114714Y0131316D01*
X0115650Y0133577D01*
X0115650Y0136023D01*
X0114714Y0138284D01*
X0112984Y0140014D01*
X0110723Y0140950D01*
X0109451Y0140950D01*
X0105584Y0144817D01*
X0105643Y0144841D01*
X0108143Y0147341D01*
X0108958Y0148157D01*
X0109400Y0149223D01*
X0109400Y0157877D01*
X0108958Y0158943D01*
X0102500Y0165401D01*
X0102500Y0166834D01*
X0101632Y0168929D01*
X0100029Y0170532D01*
X0098899Y0171000D01*
X0100029Y0171468D01*
X0101632Y0173071D01*
X0102500Y0175166D01*
X0102500Y0177434D01*
X0101632Y0179529D01*
X0100029Y0181132D01*
X0098417Y0181800D01*
X0100337Y0181800D01*
X0100795Y0181923D01*
X0101205Y0182160D01*
X0101540Y0182495D01*
X0101777Y0182905D01*
X0101900Y0183363D01*
X0101900Y0186900D01*
X0101900Y0190437D01*
X0101777Y0190895D01*
X0101540Y0191305D01*
X0101205Y0191640D01*
X0100795Y0191877D01*
X0100337Y0192000D01*
X0096800Y0192000D01*
X0096800Y0186900D01*
X0096800Y0186900D01*
X0101900Y0186900D01*
X0096800Y0186900D01*
X0096800Y0186900D01*
X0096800Y0186900D01*
X0091700Y0186900D01*
X0091700Y0190437D01*
X0091823Y0190895D01*
X0092060Y0191305D01*
X0092395Y0191640D01*
X0092805Y0191877D01*
X0093263Y0192000D01*
X0096800Y0192000D01*
X0096800Y0186900D01*
X0091700Y0186900D01*
X0091700Y0183363D01*
X0091823Y0182905D01*
X0092060Y0182495D01*
X0092395Y0182160D01*
X0092671Y0182000D01*
X0089285Y0182000D01*
X0089324Y0199400D01*
X0089321Y0198053D02*
X0132105Y0198053D01*
X0131898Y0198259D02*
X0132574Y0197584D01*
X0133456Y0197219D01*
X0135239Y0197219D01*
X0134600Y0195675D01*
X0134600Y0193925D01*
X0134652Y0193800D01*
X0133613Y0193800D01*
X0133155Y0193677D01*
X0132745Y0193440D01*
X0132410Y0193105D01*
X0132173Y0192695D01*
X0132050Y0192237D01*
X0132050Y0190800D01*
X0137159Y0190800D01*
X0137159Y0190800D01*
X0132050Y0190800D01*
X0132050Y0189363D01*
X0132173Y0188905D01*
X0132242Y0188786D01*
X0131815Y0188359D01*
X0131450Y0187477D01*
X0131450Y0184123D01*
X0131791Y0183300D01*
X0131450Y0182477D01*
X0131450Y0179123D01*
X0131791Y0178300D01*
X0131450Y0177477D01*
X0131450Y0174123D01*
X0131815Y0173241D01*
X0132491Y0172565D01*
X0132613Y0172515D01*
X0132357Y0172258D01*
X0131541Y0171443D01*
X0131100Y0170377D01*
X0131100Y0165623D01*
X0130270Y0164792D01*
X0129600Y0163175D01*
X0129600Y0161425D01*
X0130270Y0159808D01*
X0131508Y0158570D01*
X0133125Y0157900D01*
X0134875Y0157900D01*
X0136492Y0158570D01*
X0137730Y0159808D01*
X0138400Y0161425D01*
X0138400Y0163175D01*
X0137730Y0164792D01*
X0136900Y0165623D01*
X0136900Y0165907D01*
X0138125Y0165400D01*
X0139875Y0165400D01*
X0141492Y0166070D01*
X0142496Y0167074D01*
X0143143Y0167341D01*
X0145643Y0169841D01*
X0146458Y0170657D01*
X0146900Y0171723D01*
X0146900Y0180377D01*
X0146458Y0181443D01*
X0145643Y0182258D01*
X0144916Y0182560D01*
X0144609Y0183300D01*
X0144950Y0184123D01*
X0144950Y0187477D01*
X0144585Y0188359D01*
X0144158Y0188786D01*
X0144227Y0188905D01*
X0144350Y0189363D01*
X0144350Y0190800D01*
X0144350Y0192237D01*
X0144227Y0192695D01*
X0143990Y0193105D01*
X0143655Y0193440D01*
X0143287Y0193653D01*
X0143400Y0193925D01*
X0143400Y0195675D01*
X0142761Y0197219D01*
X0143072Y0197219D01*
X0143954Y0197584D01*
X0144629Y0198259D01*
X0144994Y0199141D01*
X0144994Y0202458D01*
X0144629Y0203341D01*
X0144189Y0203781D01*
X0144272Y0203924D01*
X0144394Y0204382D01*
X0144394Y0205800D01*
X0144394Y0207218D01*
X0144272Y0207676D01*
X0144035Y0208086D01*
X0143821Y0208300D01*
X0144035Y0208514D01*
X0144272Y0208924D01*
X0144394Y0209382D01*
X0144394Y0210800D01*
X0144394Y0212218D01*
X0144272Y0212676D01*
X0144035Y0213086D01*
X0143821Y0213300D01*
X0144035Y0213514D01*
X0144272Y0213924D01*
X0144394Y0214382D01*
X0144394Y0215800D01*
X0144394Y0217218D01*
X0144272Y0217676D01*
X0144035Y0218086D01*
X0143700Y0218421D01*
X0143290Y0218658D01*
X0143400Y0218925D01*
X0143400Y0220675D01*
X0142761Y0222219D01*
X0143072Y0222219D01*
X0143954Y0222584D01*
X0144629Y0223259D01*
X0144994Y0224141D01*
X0144994Y0227458D01*
X0144629Y0228341D01*
X0144189Y0228781D01*
X0144272Y0228924D01*
X0144394Y0229382D01*
X0144394Y0230800D01*
X0144394Y0232218D01*
X0144272Y0232676D01*
X0144035Y0233086D01*
X0143821Y0233300D01*
X0144035Y0233514D01*
X0144272Y0233924D01*
X0144394Y0234382D01*
X0144394Y0235800D01*
X0144394Y0237218D01*
X0144272Y0237676D01*
X0144035Y0238086D01*
X0143821Y0238300D01*
X0144035Y0238514D01*
X0144272Y0238924D01*
X0144394Y0239382D01*
X0144394Y0240800D01*
X0144394Y0242218D01*
X0144272Y0242676D01*
X0144035Y0243086D01*
X0143700Y0243421D01*
X0143289Y0243658D01*
X0142831Y0243781D01*
X0138264Y0243781D01*
X0138264Y0240800D01*
X0144394Y0240800D01*
X0138264Y0240800D01*
X0138264Y0240800D01*
X0138264Y0240800D01*
X0138264Y0237819D01*
X0138264Y0235800D01*
X0144394Y0235800D01*
X0138264Y0235800D01*
X0138264Y0235800D01*
X0138264Y0230800D01*
X0144394Y0230800D01*
X0138264Y0230800D01*
X0138264Y0230800D01*
X0138264Y0230800D01*
X0138264Y0233781D01*
X0138264Y0235800D01*
X0138264Y0235800D01*
X0138264Y0235800D01*
X0138264Y0240800D01*
X0138264Y0240800D01*
X0138264Y0243781D01*
X0133696Y0243781D01*
X0133238Y0243658D01*
X0132828Y0243421D01*
X0132493Y0243086D01*
X0132256Y0242676D01*
X0132133Y0242218D01*
X0132133Y0240800D01*
X0138264Y0240800D01*
X0132133Y0240800D01*
X0132133Y0239382D01*
X0132256Y0238924D01*
X0132493Y0238514D01*
X0132706Y0238300D01*
X0132493Y0238086D01*
X0132256Y0237676D01*
X0132133Y0237218D01*
X0132133Y0235800D01*
X0138264Y0235800D01*
X0132133Y0235800D01*
X0132133Y0234382D01*
X0132256Y0233924D01*
X0132493Y0233514D01*
X0132706Y0233300D01*
X0132493Y0233086D01*
X0132256Y0232676D01*
X0132133Y0232218D01*
X0132133Y0230800D01*
X0138264Y0230800D01*
X0132133Y0230800D01*
X0132133Y0229382D01*
X0132256Y0228924D01*
X0132339Y0228781D01*
X0131898Y0228341D01*
X0131533Y0227458D01*
X0131533Y0224141D01*
X0131898Y0223259D01*
X0132574Y0222584D01*
X0133456Y0222219D01*
X0135239Y0222219D01*
X0134600Y0220675D01*
X0134600Y0218925D01*
X0134660Y0218781D01*
X0133696Y0218781D01*
X0133238Y0218658D01*
X0132828Y0218421D01*
X0132493Y0218086D01*
X0132256Y0217676D01*
X0132133Y0217218D01*
X0132133Y0215800D01*
X0137159Y0215800D01*
X0137159Y0215800D01*
X0132133Y0215800D01*
X0132133Y0214382D01*
X0132256Y0213924D01*
X0132493Y0213514D01*
X0132706Y0213300D01*
X0132493Y0213086D01*
X0132256Y0212676D01*
X0132133Y0212218D01*
X0132133Y0210800D01*
X0138264Y0210800D01*
X0144394Y0210800D01*
X0138264Y0210800D01*
X0138264Y0210800D01*
X0138264Y0210800D01*
X0138264Y0212819D01*
X0138264Y0215400D01*
X0138264Y0215400D01*
X0138264Y0210800D01*
X0138264Y0205800D01*
X0144394Y0205800D01*
X0138264Y0205800D01*
X0138264Y0205800D01*
X0138264Y0205800D01*
X0138264Y0207819D01*
X0138264Y0210800D01*
X0138264Y0210800D01*
X0132133Y0210800D01*
X0132133Y0209382D01*
X0132256Y0208924D01*
X0132493Y0208514D01*
X0132706Y0208300D01*
X0132493Y0208086D01*
X0132256Y0207676D01*
X0132133Y0207218D01*
X0132133Y0205800D01*
X0138264Y0205800D01*
X0132133Y0205800D01*
X0132133Y0204382D01*
X0132256Y0203924D01*
X0132339Y0203781D01*
X0131898Y0203341D01*
X0131533Y0202458D01*
X0131533Y0199141D01*
X0131898Y0198259D01*
X0131533Y0199651D02*
X0092683Y0199651D01*
X0094551Y0201250D02*
X0131533Y0201250D01*
X0131694Y0202848D02*
X0105043Y0202848D01*
X0105117Y0202891D02*
X0105452Y0203226D01*
X0105689Y0203637D01*
X0105812Y0204095D01*
X0105812Y0206116D01*
X0102031Y0206116D01*
X0102031Y0202531D01*
X0104249Y0202531D01*
X0104707Y0202654D01*
X0105117Y0202891D01*
X0105812Y0204447D02*
X0132133Y0204447D01*
X0132133Y0206045D02*
X0105812Y0206045D01*
X0105812Y0207644D02*
X0132247Y0207644D01*
X0132170Y0209242D02*
X0105528Y0209242D01*
X0102031Y0209242D02*
X0101662Y0209242D01*
X0101662Y0207644D02*
X0102031Y0207644D01*
X0102031Y0206045D02*
X0101662Y0206045D01*
X0101662Y0204447D02*
X0102031Y0204447D01*
X0102031Y0202848D02*
X0101662Y0202848D01*
X0099400Y0210841D02*
X0132133Y0210841D01*
X0132192Y0212439D02*
X0099400Y0212439D01*
X0099400Y0214038D02*
X0132225Y0214038D01*
X0132133Y0215636D02*
X0099400Y0215636D01*
X0099400Y0217235D02*
X0132138Y0217235D01*
X0134638Y0218833D02*
X0100282Y0218833D01*
X0101233Y0220432D02*
X0134600Y0220432D01*
X0135161Y0222030D02*
X0102831Y0222030D01*
X0104430Y0223629D02*
X0131745Y0223629D01*
X0131533Y0225227D02*
X0106029Y0225227D01*
X0107627Y0226826D02*
X0131533Y0226826D01*
X0131982Y0228424D02*
X0109226Y0228424D01*
X0110824Y0230023D02*
X0132133Y0230023D01*
X0132133Y0231621D02*
X0112423Y0231621D01*
X0114021Y0233220D02*
X0132626Y0233220D01*
X0132133Y0234818D02*
X0115620Y0234818D01*
X0117218Y0236417D02*
X0132133Y0236417D01*
X0132452Y0238015D02*
X0118817Y0238015D01*
X0120415Y0239614D02*
X0132133Y0239614D01*
X0132133Y0241212D02*
X0122014Y0241212D01*
X0123612Y0242811D02*
X0132334Y0242811D01*
X0138264Y0242811D02*
X0138264Y0242811D01*
X0138264Y0241212D02*
X0138264Y0241212D01*
X0138264Y0240800D02*
X0138264Y0240800D01*
X0138264Y0239614D02*
X0138264Y0239614D01*
X0138264Y0238015D02*
X0138264Y0238015D01*
X0138264Y0236417D02*
X0138264Y0236417D01*
X0138264Y0235800D02*
X0138264Y0235800D01*
X0138264Y0234818D02*
X0138264Y0234818D01*
X0138264Y0233220D02*
X0138264Y0233220D01*
X0138264Y0231621D02*
X0138264Y0231621D01*
X0138264Y0230800D02*
X0138264Y0230800D01*
X0143901Y0233220D02*
X0148641Y0233220D01*
X0148674Y0233300D02*
X0148606Y0233135D01*
X0148606Y0228465D01*
X0148674Y0228300D01*
X0148606Y0228135D01*
X0148606Y0223465D01*
X0149489Y0221333D01*
X0151120Y0219702D01*
X0152967Y0218937D01*
X0152371Y0218341D01*
X0152006Y0217458D01*
X0152006Y0214141D01*
X0152354Y0213300D01*
X0152006Y0212458D01*
X0152006Y0209141D01*
X0152354Y0208300D01*
X0152006Y0207458D01*
X0152006Y0204141D01*
X0152354Y0203300D01*
X0152006Y0202458D01*
X0152006Y0199141D01*
X0152371Y0198259D01*
X0152900Y0197730D01*
X0152900Y0193844D01*
X0152415Y0193359D01*
X0152050Y0192477D01*
X0152050Y0189123D01*
X0152391Y0188300D01*
X0152050Y0187477D01*
X0152050Y0184123D01*
X0152391Y0183300D01*
X0152050Y0182477D01*
X0152050Y0179123D01*
X0152391Y0178300D01*
X0152050Y0177477D01*
X0152050Y0174123D01*
X0152415Y0173241D01*
X0153091Y0172565D01*
X0153973Y0172200D01*
X0163627Y0172200D01*
X0164509Y0172565D01*
X0164544Y0172600D01*
X0164634Y0172600D01*
X0166729Y0173468D01*
X0168332Y0175071D01*
X0180794Y0187532D01*
X0188204Y0187532D01*
X0190381Y0188435D01*
X0192048Y0190101D01*
X0192300Y0190710D01*
X0192300Y0180868D01*
X0190774Y0179343D01*
X0182267Y0179343D01*
X0181603Y0179068D01*
X0178796Y0179068D01*
X0176619Y0178165D01*
X0174952Y0176499D01*
X0174050Y0174321D01*
X0174050Y0171964D01*
X0174952Y0169786D01*
X0176619Y0168120D01*
X0178796Y0167218D01*
X0181603Y0167218D01*
X0182267Y0166943D01*
X0194576Y0166943D01*
X0196855Y0167886D01*
X0202012Y0173044D01*
X0203756Y0174788D01*
X0204700Y0177067D01*
X0204700Y0254376D01*
X0203756Y0256655D01*
X0202012Y0258399D01*
X0199733Y0259343D01*
X0182267Y0259343D01*
X0181603Y0259068D01*
X0178796Y0259068D01*
X0176619Y0258165D01*
X0174952Y0256499D01*
X0174050Y0254321D01*
X0174050Y0251964D01*
X0174952Y0249786D01*
X0176619Y0248120D01*
X0178796Y0247218D01*
X0181603Y0247218D01*
X0182267Y0246943D01*
X0192300Y0246943D01*
X0192300Y0241366D01*
X0188880Y0242782D01*
X0178120Y0242782D01*
X0178060Y0242757D01*
X0168867Y0242757D01*
X0168867Y0243135D01*
X0167984Y0245267D01*
X0166352Y0246898D01*
X0165393Y0247296D01*
X0164004Y0248684D01*
X0160586Y0250100D01*
X0156886Y0250100D01*
X0153468Y0248684D01*
X0152080Y0247296D01*
X0151120Y0246898D01*
X0149489Y0245267D01*
X0148606Y0243135D01*
X0148606Y0238465D01*
X0148674Y0238300D01*
X0148606Y0238135D01*
X0148606Y0233465D01*
X0148674Y0233300D01*
X0148606Y0234818D02*
X0144394Y0234818D01*
X0144394Y0236417D02*
X0148606Y0236417D01*
X0148606Y0238015D02*
X0144076Y0238015D01*
X0144394Y0239614D02*
X0148606Y0239614D01*
X0148606Y0241212D02*
X0144394Y0241212D01*
X0144194Y0242811D02*
X0148606Y0242811D01*
X0149134Y0244409D02*
X0124400Y0244409D01*
X0124400Y0246008D02*
X0150230Y0246008D01*
X0152391Y0247606D02*
X0124400Y0247606D01*
X0124400Y0249205D02*
X0154726Y0249205D01*
X0153439Y0254001D02*
X0159561Y0254001D01*
X0157074Y0255599D02*
X0155926Y0255599D01*
X0149561Y0254001D02*
X0143439Y0254001D01*
X0145926Y0255599D02*
X0147074Y0255599D01*
X0139561Y0254001D02*
X0133439Y0254001D01*
X0135926Y0255599D02*
X0137074Y0255599D01*
X0129561Y0254001D02*
X0124400Y0254001D01*
X0124400Y0252402D02*
X0174050Y0252402D01*
X0174050Y0254001D02*
X0163439Y0254001D01*
X0165926Y0255599D02*
X0174579Y0255599D01*
X0175651Y0257198D02*
X0167025Y0257198D01*
X0167600Y0258796D02*
X0178141Y0258796D01*
X0174531Y0250803D02*
X0124400Y0250803D01*
X0125926Y0255599D02*
X0127074Y0255599D01*
X0144394Y0231621D02*
X0148606Y0231621D01*
X0148606Y0230023D02*
X0144394Y0230023D01*
X0144545Y0228424D02*
X0148622Y0228424D01*
X0148606Y0226826D02*
X0144994Y0226826D01*
X0144994Y0225227D02*
X0148606Y0225227D01*
X0148606Y0223629D02*
X0144782Y0223629D01*
X0142839Y0222030D02*
X0149200Y0222030D01*
X0150390Y0220432D02*
X0143400Y0220432D01*
X0143362Y0218833D02*
X0152864Y0218833D01*
X0152006Y0217235D02*
X0144390Y0217235D01*
X0144394Y0215800D02*
X0140841Y0215800D01*
X0140841Y0215800D01*
X0144394Y0215800D01*
X0144394Y0215636D02*
X0152006Y0215636D01*
X0152048Y0214038D02*
X0144302Y0214038D01*
X0144335Y0212439D02*
X0152006Y0212439D01*
X0152006Y0210841D02*
X0144394Y0210841D01*
X0144357Y0209242D02*
X0152006Y0209242D01*
X0152082Y0207644D02*
X0144280Y0207644D01*
X0144394Y0206045D02*
X0152006Y0206045D01*
X0152006Y0204447D02*
X0144394Y0204447D01*
X0144833Y0202848D02*
X0152167Y0202848D01*
X0152006Y0201250D02*
X0144994Y0201250D01*
X0144994Y0199651D02*
X0152006Y0199651D01*
X0152578Y0198053D02*
X0144422Y0198053D01*
X0143077Y0196454D02*
X0152900Y0196454D01*
X0152900Y0194856D02*
X0143400Y0194856D01*
X0143838Y0193257D02*
X0152373Y0193257D01*
X0152050Y0191659D02*
X0144350Y0191659D01*
X0144350Y0190800D02*
X0140841Y0190800D01*
X0140841Y0190800D01*
X0144350Y0190800D01*
X0144350Y0190060D02*
X0152050Y0190060D01*
X0152324Y0188462D02*
X0144483Y0188462D01*
X0144950Y0186863D02*
X0152050Y0186863D01*
X0152050Y0185265D02*
X0144950Y0185265D01*
X0144761Y0183666D02*
X0152239Y0183666D01*
X0152050Y0182068D02*
X0145834Y0182068D01*
X0146862Y0180469D02*
X0152050Y0180469D01*
X0152154Y0178870D02*
X0146900Y0178870D01*
X0146900Y0177272D02*
X0152050Y0177272D01*
X0152050Y0175673D02*
X0146900Y0175673D01*
X0146900Y0174075D02*
X0152070Y0174075D01*
X0153305Y0172476D02*
X0146900Y0172476D01*
X0146550Y0170878D02*
X0174500Y0170878D01*
X0174050Y0172476D02*
X0164295Y0172476D01*
X0167336Y0174075D02*
X0174050Y0174075D01*
X0174610Y0175673D02*
X0168934Y0175673D01*
X0170533Y0177272D02*
X0175725Y0177272D01*
X0178321Y0178870D02*
X0172132Y0178870D01*
X0173730Y0180469D02*
X0191901Y0180469D01*
X0192300Y0182068D02*
X0175329Y0182068D01*
X0176927Y0183666D02*
X0192300Y0183666D01*
X0192300Y0185265D02*
X0178526Y0185265D01*
X0180124Y0186863D02*
X0192300Y0186863D01*
X0192300Y0188462D02*
X0190408Y0188462D01*
X0192007Y0190060D02*
X0192300Y0190060D01*
X0204700Y0190060D02*
X0206000Y0190060D01*
X0206000Y0188462D02*
X0204700Y0188462D01*
X0204700Y0186863D02*
X0206000Y0186863D01*
X0206000Y0185265D02*
X0204700Y0185265D01*
X0204700Y0183666D02*
X0206000Y0183666D01*
X0206000Y0182068D02*
X0204700Y0182068D01*
X0204700Y0180469D02*
X0206000Y0180469D01*
X0206000Y0178870D02*
X0204700Y0178870D01*
X0204700Y0177272D02*
X0206000Y0177272D01*
X0206000Y0175673D02*
X0204123Y0175673D01*
X0203043Y0174075D02*
X0206000Y0174075D01*
X0206000Y0172476D02*
X0201445Y0172476D01*
X0199846Y0170878D02*
X0206000Y0170878D01*
X0206000Y0169279D02*
X0198248Y0169279D01*
X0196358Y0167681D02*
X0206000Y0167681D01*
X0206000Y0166082D02*
X0141505Y0166082D01*
X0143482Y0167681D02*
X0177678Y0167681D01*
X0175459Y0169279D02*
X0145081Y0169279D01*
X0137858Y0164484D02*
X0206000Y0164484D01*
X0206000Y0162885D02*
X0138400Y0162885D01*
X0138343Y0161287D02*
X0206000Y0161287D01*
X0206000Y0159688D02*
X0137611Y0159688D01*
X0135334Y0158090D02*
X0177337Y0158090D01*
X0177184Y0158012D02*
X0176506Y0157519D01*
X0175913Y0156926D01*
X0175421Y0156248D01*
X0175040Y0155502D01*
X0174781Y0154704D01*
X0174650Y0153877D01*
X0174650Y0153832D01*
X0183125Y0153832D01*
X0183125Y0153082D01*
X0183875Y0153082D01*
X0183875Y0148132D01*
X0187444Y0148132D01*
X0188272Y0148264D01*
X0189069Y0148523D01*
X0189816Y0148903D01*
X0190494Y0149396D01*
X0191087Y0149988D01*
X0191579Y0150667D01*
X0191960Y0151413D01*
X0192219Y0152211D01*
X0192350Y0153038D01*
X0192350Y0153082D01*
X0183875Y0153082D01*
X0183875Y0153832D01*
X0192350Y0153832D01*
X0192350Y0153877D01*
X0192219Y0154704D01*
X0191960Y0155502D01*
X0191579Y0156248D01*
X0191087Y0156926D01*
X0190494Y0157519D01*
X0189816Y0158012D01*
X0189069Y0158392D01*
X0188272Y0158651D01*
X0187444Y0158782D01*
X0183875Y0158782D01*
X0183875Y0153833D01*
X0183125Y0153833D01*
X0183125Y0158782D01*
X0179556Y0158782D01*
X0178728Y0158651D01*
X0177931Y0158392D01*
X0177184Y0158012D01*
X0175597Y0156491D02*
X0109400Y0156491D01*
X0109400Y0154893D02*
X0174842Y0154893D01*
X0174650Y0153082D02*
X0174650Y0153038D01*
X0174781Y0152211D01*
X0175040Y0151413D01*
X0175421Y0150667D01*
X0175913Y0149988D01*
X0176506Y0149396D01*
X0177184Y0148903D01*
X0177931Y0148523D01*
X0178728Y0148264D01*
X0179556Y0148132D01*
X0183125Y0148132D01*
X0183125Y0153082D01*
X0174650Y0153082D01*
X0174948Y0151696D02*
X0109400Y0151696D01*
X0109400Y0153294D02*
X0183125Y0153294D01*
X0183875Y0153294D02*
X0206000Y0153294D01*
X0206000Y0151696D02*
X0192052Y0151696D01*
X0191166Y0150097D02*
X0206000Y0150097D01*
X0206000Y0148499D02*
X0188996Y0148499D01*
X0183875Y0148499D02*
X0183125Y0148499D01*
X0183125Y0150097D02*
X0183875Y0150097D01*
X0183875Y0151696D02*
X0183125Y0151696D01*
X0183125Y0154893D02*
X0183875Y0154893D01*
X0183875Y0156491D02*
X0183125Y0156491D01*
X0183125Y0158090D02*
X0183875Y0158090D01*
X0189663Y0158090D02*
X0206000Y0158090D01*
X0206000Y0156491D02*
X0191403Y0156491D01*
X0192158Y0154893D02*
X0206000Y0154893D01*
X0206000Y0146900D02*
X0107701Y0146900D01*
X0109100Y0148499D02*
X0178004Y0148499D01*
X0175834Y0150097D02*
X0109400Y0150097D01*
X0106103Y0145302D02*
X0206000Y0145302D01*
X0206000Y0143703D02*
X0106698Y0143703D01*
X0108296Y0142105D02*
X0169449Y0142105D01*
X0166967Y0140506D02*
X0111795Y0140506D01*
X0114090Y0138908D02*
X0125759Y0138908D01*
X0127201Y0140350D02*
X0123950Y0137099D01*
X0123950Y0134800D01*
X0129500Y0134800D01*
X0135050Y0134800D01*
X0135050Y0137099D01*
X0131799Y0140350D01*
X0129500Y0140350D01*
X0129500Y0134800D01*
X0129500Y0134800D01*
X0129500Y0134800D01*
X0135050Y0134800D01*
X0135050Y0132501D01*
X0131799Y0129250D01*
X0129500Y0129250D01*
X0129500Y0134800D01*
X0129500Y0134800D01*
X0129500Y0134800D01*
X0129500Y0140350D01*
X0127201Y0140350D01*
X0129500Y0138908D02*
X0129500Y0138908D01*
X0129500Y0137309D02*
X0129500Y0137309D01*
X0129500Y0135711D02*
X0129500Y0135711D01*
X0129500Y0134800D02*
X0123950Y0134800D01*
X0123950Y0132501D01*
X0127201Y0129250D01*
X0129500Y0129250D01*
X0129500Y0134800D01*
X0129500Y0134112D02*
X0129500Y0134112D01*
X0129500Y0132514D02*
X0129500Y0132514D01*
X0129500Y0130915D02*
X0129500Y0130915D01*
X0129500Y0129317D02*
X0129500Y0129317D01*
X0131866Y0129317D02*
X0145151Y0129317D01*
X0145133Y0130915D02*
X0133464Y0130915D01*
X0135050Y0132514D02*
X0145212Y0132514D01*
X0145205Y0134112D02*
X0135050Y0134112D01*
X0135050Y0135711D02*
X0145133Y0135711D01*
X0145157Y0137309D02*
X0134840Y0137309D01*
X0133241Y0138908D02*
X0165771Y0138908D01*
X0165006Y0137309D02*
X0157370Y0137309D01*
X0157394Y0135711D02*
X0165006Y0135711D01*
X0165018Y0134112D02*
X0157322Y0134112D01*
X0157315Y0132514D02*
X0165028Y0132514D01*
X0165006Y0130915D02*
X0157394Y0130915D01*
X0157377Y0129317D02*
X0165006Y0129317D01*
X0165036Y0127718D02*
X0157247Y0127718D01*
X0157394Y0126120D02*
X0165006Y0126120D01*
X0165006Y0124521D02*
X0157394Y0124521D01*
X0157802Y0122923D02*
X0165036Y0122923D01*
X0165006Y0121324D02*
X0157994Y0121324D01*
X0157994Y0119726D02*
X0165006Y0119726D01*
X0165503Y0118127D02*
X0157497Y0118127D01*
X0153047Y0116529D02*
X0166532Y0116529D01*
X0168400Y0114930D02*
X0153400Y0114930D01*
X0153154Y0113332D02*
X0169638Y0113332D01*
X0166968Y0111733D02*
X0156184Y0111733D01*
X0157782Y0110134D02*
X0165579Y0110134D01*
X0164916Y0108536D02*
X0158800Y0108536D01*
X0152200Y0106100D02*
X0152200Y0099500D01*
X0153901Y0099500D01*
X0153901Y0099110D01*
X0153989Y0098781D01*
X0151764Y0098781D01*
X0151764Y0095800D01*
X0157894Y0095800D01*
X0151764Y0095800D01*
X0151764Y0095800D01*
X0151764Y0092819D01*
X0151764Y0090800D01*
X0157894Y0090800D01*
X0151764Y0090800D01*
X0151764Y0090800D01*
X0151764Y0090800D01*
X0151764Y0085800D01*
X0157894Y0085800D01*
X0151764Y0085800D01*
X0151764Y0085800D01*
X0151764Y0085800D01*
X0151764Y0088781D01*
X0151764Y0090800D01*
X0151764Y0090800D01*
X0151764Y0095800D01*
X0151764Y0095800D01*
X0151764Y0095800D01*
X0151764Y0098781D01*
X0147196Y0098781D01*
X0146738Y0098658D01*
X0146328Y0098421D01*
X0145993Y0098086D01*
X0145756Y0097676D01*
X0145633Y0097218D01*
X0145633Y0095800D01*
X0151764Y0095800D01*
X0145633Y0095800D01*
X0145633Y0094382D01*
X0145756Y0093924D01*
X0145993Y0093514D01*
X0146206Y0093300D01*
X0145993Y0093086D01*
X0145756Y0092676D01*
X0145633Y0092218D01*
X0145633Y0090800D01*
X0151764Y0090800D01*
X0145633Y0090800D01*
X0145633Y0089382D01*
X0145756Y0088924D01*
X0145993Y0088514D01*
X0146206Y0088300D01*
X0145993Y0088086D01*
X0145756Y0087676D01*
X0145633Y0087218D01*
X0145633Y0085800D01*
X0151764Y0085800D01*
X0145633Y0085800D01*
X0145633Y0084382D01*
X0145756Y0083924D01*
X0145839Y0083781D01*
X0145398Y0083341D01*
X0145033Y0082458D01*
X0145033Y0082331D01*
X0144857Y0082258D01*
X0138269Y0075670D01*
X0137713Y0075900D01*
X0135287Y0075900D01*
X0133045Y0074971D01*
X0131500Y0073427D01*
X0129955Y0074971D01*
X0127713Y0075900D01*
X0125287Y0075900D01*
X0123045Y0074971D01*
X0121500Y0073427D01*
X0119955Y0074971D01*
X0117713Y0075900D01*
X0115287Y0075900D01*
X0113045Y0074971D01*
X0111500Y0073427D01*
X0109955Y0074971D01*
X0107713Y0075900D01*
X0105287Y0075900D01*
X0103045Y0074971D01*
X0101329Y0073255D01*
X0100400Y0071013D01*
X0100400Y0068587D01*
X0101329Y0066345D01*
X0101873Y0065800D01*
X0096127Y0065800D01*
X0096671Y0066345D01*
X0097600Y0068587D01*
X0097600Y0071013D01*
X0096671Y0073255D01*
X0094955Y0074971D01*
X0092713Y0075900D01*
X0090287Y0075900D01*
X0089041Y0075384D01*
X0089058Y0082900D01*
X0089875Y0082900D01*
X0091492Y0083570D01*
X0091500Y0083577D01*
X0091508Y0083570D01*
X0093125Y0082900D01*
X0094875Y0082900D01*
X0096492Y0083570D01*
X0097730Y0084808D01*
X0098400Y0086425D01*
X0098400Y0087599D01*
X0105201Y0094400D01*
X0132077Y0094400D01*
X0133143Y0094841D01*
X0133958Y0095657D01*
X0145200Y0106899D01*
X0145200Y0106500D01*
X0151800Y0106500D01*
X0151800Y0106100D01*
X0152200Y0106100D01*
X0151800Y0106100D02*
X0151800Y0099500D01*
X0149183Y0099500D01*
X0145200Y0103483D01*
X0145200Y0106100D01*
X0151800Y0106100D01*
X0151800Y0105339D02*
X0152200Y0105339D01*
X0152200Y0103740D02*
X0151800Y0103740D01*
X0151800Y0102142D02*
X0152200Y0102142D01*
X0152200Y0100543D02*
X0151800Y0100543D01*
X0153945Y0098945D02*
X0137246Y0098945D01*
X0135648Y0097346D02*
X0145667Y0097346D01*
X0145633Y0095748D02*
X0134049Y0095748D01*
X0138845Y0100543D02*
X0148140Y0100543D01*
X0146541Y0102142D02*
X0140443Y0102142D01*
X0142042Y0103740D02*
X0145200Y0103740D01*
X0145200Y0105339D02*
X0143640Y0105339D01*
X0151764Y0097346D02*
X0151764Y0097346D01*
X0151764Y0095800D02*
X0151764Y0095800D01*
X0151764Y0095748D02*
X0151764Y0095748D01*
X0151764Y0094149D02*
X0151764Y0094149D01*
X0151764Y0092551D02*
X0151764Y0092551D01*
X0151764Y0090952D02*
X0151764Y0090952D01*
X0151764Y0090800D02*
X0151764Y0090800D01*
X0151764Y0089354D02*
X0151764Y0089354D01*
X0151764Y0087755D02*
X0151764Y0087755D01*
X0151764Y0086157D02*
X0151764Y0086157D01*
X0151764Y0085800D02*
X0151764Y0085800D01*
X0157894Y0086157D02*
X0165506Y0086157D01*
X0165506Y0084558D02*
X0157894Y0084558D01*
X0158287Y0082960D02*
X0165713Y0082960D01*
X0165506Y0081361D02*
X0158494Y0081361D01*
X0158494Y0079763D02*
X0165506Y0079763D01*
X0165966Y0078164D02*
X0158034Y0078164D01*
X0159959Y0074967D02*
X0164605Y0074967D01*
X0166300Y0074967D02*
X0166700Y0074967D01*
X0166700Y0073369D02*
X0166300Y0073369D01*
X0166300Y0071770D02*
X0166700Y0071770D01*
X0166700Y0070172D02*
X0166300Y0070172D01*
X0162294Y0073369D02*
X0161558Y0073369D01*
X0168395Y0074967D02*
X0173041Y0074967D01*
X0171442Y0073369D02*
X0170706Y0073369D01*
X0178506Y0078164D02*
X0189600Y0078164D01*
X0189165Y0076566D02*
X0147367Y0076566D01*
X0149959Y0074967D02*
X0153041Y0074967D01*
X0143960Y0081361D02*
X0089055Y0081361D01*
X0089051Y0079763D02*
X0142362Y0079763D01*
X0140763Y0078164D02*
X0089048Y0078164D01*
X0089044Y0076566D02*
X0139165Y0076566D01*
X0133041Y0074967D02*
X0129959Y0074967D01*
X0123041Y0074967D02*
X0119959Y0074967D01*
X0113041Y0074967D02*
X0109959Y0074967D01*
X0103041Y0074967D02*
X0094959Y0074967D01*
X0096558Y0073369D02*
X0101442Y0073369D01*
X0100714Y0071770D02*
X0097286Y0071770D01*
X0097600Y0070172D02*
X0100400Y0070172D01*
X0100406Y0068573D02*
X0097594Y0068573D01*
X0096932Y0066975D02*
X0101068Y0066975D01*
X0095020Y0082960D02*
X0145241Y0082960D01*
X0145633Y0084558D02*
X0097481Y0084558D01*
X0098289Y0086157D02*
X0145633Y0086157D01*
X0145802Y0087755D02*
X0098557Y0087755D01*
X0100155Y0089354D02*
X0145641Y0089354D01*
X0145633Y0090952D02*
X0101754Y0090952D01*
X0103352Y0092551D02*
X0145722Y0092551D01*
X0145695Y0094149D02*
X0104951Y0094149D01*
X0092980Y0082960D02*
X0090020Y0082960D01*
X0070154Y0085300D02*
X0062512Y0085300D01*
X0051488Y0085300D02*
X0043201Y0085300D01*
X0043012Y0085489D01*
X0043012Y0095300D01*
X0031988Y0095300D02*
X0021500Y0095300D01*
X0021500Y0085300D02*
X0030799Y0085300D01*
X0089113Y0106937D02*
X0092036Y0106937D01*
X0093635Y0108536D02*
X0089337Y0108536D01*
X0090936Y0110134D02*
X0095233Y0110134D01*
X0096832Y0111733D02*
X0092534Y0111733D01*
X0094133Y0113332D02*
X0098430Y0113332D01*
X0100029Y0114930D02*
X0095731Y0114930D01*
X0097330Y0116529D02*
X0101627Y0116529D01*
X0103226Y0118127D02*
X0098928Y0118127D01*
X0100527Y0119726D02*
X0104824Y0119726D01*
X0106423Y0121324D02*
X0102125Y0121324D01*
X0103724Y0122923D02*
X0144725Y0122923D01*
X0145133Y0124521D02*
X0105322Y0124521D01*
X0106921Y0126120D02*
X0145133Y0126120D01*
X0145280Y0127718D02*
X0108519Y0127718D01*
X0112333Y0129317D02*
X0127134Y0129317D01*
X0125536Y0130915D02*
X0114313Y0130915D01*
X0115210Y0132514D02*
X0123950Y0132514D01*
X0123950Y0134112D02*
X0115650Y0134112D01*
X0115650Y0135711D02*
X0123950Y0135711D01*
X0124160Y0137309D02*
X0115117Y0137309D01*
X0109312Y0158090D02*
X0132666Y0158090D01*
X0130389Y0159688D02*
X0108213Y0159688D01*
X0106614Y0161287D02*
X0129657Y0161287D01*
X0129600Y0162885D02*
X0105016Y0162885D01*
X0103417Y0164484D02*
X0130142Y0164484D01*
X0131100Y0166082D02*
X0102500Y0166082D01*
X0102149Y0167681D02*
X0131100Y0167681D01*
X0131100Y0169279D02*
X0101282Y0169279D01*
X0099194Y0170878D02*
X0131308Y0170878D01*
X0132575Y0172476D02*
X0101037Y0172476D01*
X0102048Y0174075D02*
X0131470Y0174075D01*
X0131450Y0175673D02*
X0102500Y0175673D01*
X0102500Y0177272D02*
X0131450Y0177272D01*
X0131554Y0178870D02*
X0101905Y0178870D01*
X0100692Y0180469D02*
X0131450Y0180469D01*
X0131450Y0182068D02*
X0101046Y0182068D01*
X0101900Y0183666D02*
X0131639Y0183666D01*
X0131450Y0185265D02*
X0101900Y0185265D01*
X0101900Y0186863D02*
X0131450Y0186863D01*
X0131917Y0188462D02*
X0101900Y0188462D01*
X0101900Y0190060D02*
X0132050Y0190060D01*
X0132050Y0191659D02*
X0101174Y0191659D01*
X0096800Y0191659D02*
X0096800Y0191659D01*
X0096800Y0190060D02*
X0096800Y0190060D01*
X0096800Y0188462D02*
X0096800Y0188462D01*
X0091700Y0188462D02*
X0089299Y0188462D01*
X0089303Y0190060D02*
X0091700Y0190060D01*
X0092426Y0191659D02*
X0089307Y0191659D01*
X0089310Y0193257D02*
X0132562Y0193257D01*
X0134600Y0194856D02*
X0089314Y0194856D01*
X0089318Y0196454D02*
X0134923Y0196454D01*
X0138264Y0205800D02*
X0138264Y0205800D01*
X0138264Y0206045D02*
X0138264Y0206045D01*
X0138264Y0207644D02*
X0138264Y0207644D01*
X0138264Y0209242D02*
X0138264Y0209242D01*
X0138264Y0210800D02*
X0138264Y0210800D01*
X0138264Y0210841D02*
X0138264Y0210841D01*
X0138264Y0212439D02*
X0138264Y0212439D01*
X0138264Y0214038D02*
X0138264Y0214038D01*
X0168867Y0242811D02*
X0192300Y0242811D01*
X0192300Y0244409D02*
X0168339Y0244409D01*
X0167242Y0246008D02*
X0192300Y0246008D01*
X0204700Y0246008D02*
X0206000Y0246008D01*
X0206000Y0247606D02*
X0204700Y0247606D01*
X0204700Y0249205D02*
X0206000Y0249205D01*
X0206000Y0250803D02*
X0204700Y0250803D01*
X0204700Y0252402D02*
X0206000Y0252402D01*
X0206000Y0254001D02*
X0204700Y0254001D01*
X0204193Y0255599D02*
X0206000Y0255599D01*
X0206000Y0257198D02*
X0203213Y0257198D01*
X0201053Y0258796D02*
X0206000Y0258796D01*
X0206000Y0260395D02*
X0167600Y0260395D01*
X0167194Y0261993D02*
X0206000Y0261993D01*
X0206000Y0263592D02*
X0166335Y0263592D01*
X0162747Y0249205D02*
X0175533Y0249205D01*
X0177857Y0247606D02*
X0165082Y0247606D01*
X0204700Y0244409D02*
X0206000Y0244409D01*
X0206000Y0242811D02*
X0204700Y0242811D01*
X0204700Y0241212D02*
X0206000Y0241212D01*
X0206000Y0239614D02*
X0204700Y0239614D01*
X0204700Y0238015D02*
X0206000Y0238015D01*
X0206000Y0236417D02*
X0204700Y0236417D01*
X0204700Y0234818D02*
X0206000Y0234818D01*
X0206000Y0233220D02*
X0204700Y0233220D01*
X0204700Y0231621D02*
X0206000Y0231621D01*
X0206000Y0230023D02*
X0204700Y0230023D01*
X0204700Y0228424D02*
X0206000Y0228424D01*
X0206000Y0226826D02*
X0204700Y0226826D01*
X0204700Y0225227D02*
X0206000Y0225227D01*
X0206000Y0223629D02*
X0204700Y0223629D01*
X0204700Y0222030D02*
X0206000Y0222030D01*
X0206000Y0220432D02*
X0204700Y0220432D01*
X0204700Y0218833D02*
X0206000Y0218833D01*
X0206000Y0217235D02*
X0204700Y0217235D01*
X0204700Y0215636D02*
X0206000Y0215636D01*
X0206000Y0214038D02*
X0204700Y0214038D01*
X0204700Y0212439D02*
X0206000Y0212439D01*
X0206000Y0210841D02*
X0204700Y0210841D01*
X0204700Y0209242D02*
X0206000Y0209242D01*
X0206000Y0207644D02*
X0204700Y0207644D01*
X0204700Y0206045D02*
X0206000Y0206045D01*
X0206000Y0204447D02*
X0204700Y0204447D01*
X0204700Y0202848D02*
X0206000Y0202848D01*
X0206000Y0201250D02*
X0204700Y0201250D01*
X0204700Y0199651D02*
X0206000Y0199651D01*
X0206000Y0198053D02*
X0204700Y0198053D01*
X0204700Y0196454D02*
X0206000Y0196454D01*
X0206000Y0194856D02*
X0204700Y0194856D01*
X0204700Y0193257D02*
X0206000Y0193257D01*
X0206000Y0191659D02*
X0204700Y0191659D01*
X0206000Y0142105D02*
X0174023Y0142105D01*
X0176505Y0140506D02*
X0206000Y0140506D01*
X0206000Y0138908D02*
X0199019Y0138908D01*
X0200617Y0137309D02*
X0206000Y0137309D01*
X0206000Y0135711D02*
X0201311Y0135711D01*
X0201600Y0134112D02*
X0206000Y0134112D01*
X0206000Y0132514D02*
X0201570Y0132514D01*
X0200908Y0130915D02*
X0206000Y0130915D01*
X0206000Y0129317D02*
X0199643Y0129317D01*
X0201057Y0127718D02*
X0206000Y0127718D01*
X0206000Y0126120D02*
X0201791Y0126120D01*
X0202200Y0124521D02*
X0206000Y0124521D01*
X0206000Y0122923D02*
X0202200Y0122923D01*
X0201726Y0121324D02*
X0206000Y0121324D01*
X0206000Y0119726D02*
X0200901Y0119726D01*
X0199302Y0118127D02*
X0206000Y0118127D01*
X0206000Y0116529D02*
X0201908Y0116529D01*
X0203256Y0114930D02*
X0206000Y0114930D01*
X0206000Y0113332D02*
X0203900Y0113332D01*
X0203900Y0111733D02*
X0206000Y0111733D01*
X0206000Y0110134D02*
X0203448Y0110134D01*
X0202373Y0108536D02*
X0206000Y0108536D01*
X0206000Y0106937D02*
X0201415Y0106937D01*
X0203086Y0105339D02*
X0206000Y0105339D01*
X0206000Y0103740D02*
X0203748Y0103740D01*
X0203900Y0102142D02*
X0206000Y0102142D01*
X0206000Y0100543D02*
X0203617Y0100543D01*
X0202782Y0098945D02*
X0206000Y0098945D01*
X0206000Y0097346D02*
X0200652Y0097346D01*
X0202689Y0095748D02*
X0206000Y0095748D01*
X0206000Y0094149D02*
X0203579Y0094149D01*
X0203900Y0092551D02*
X0206000Y0092551D01*
X0206000Y0090952D02*
X0203787Y0090952D01*
X0203125Y0089354D02*
X0206000Y0089354D01*
X0206000Y0087755D02*
X0201592Y0087755D01*
X0198177Y0086157D02*
X0206000Y0086157D01*
X0206000Y0084558D02*
X0187934Y0084558D01*
X0186336Y0082960D02*
X0206000Y0082960D01*
X0206000Y0081361D02*
X0195693Y0081361D01*
X0197742Y0079763D02*
X0206000Y0079763D01*
X0206000Y0078164D02*
X0198400Y0078164D01*
X0198400Y0076566D02*
X0206000Y0076566D01*
X0206000Y0074967D02*
X0199959Y0074967D01*
X0201558Y0073369D02*
X0206000Y0073369D01*
X0206000Y0071770D02*
X0202286Y0071770D01*
X0202600Y0070172D02*
X0206000Y0070172D01*
X0206000Y0068573D02*
X0202594Y0068573D01*
X0201932Y0066975D02*
X0206000Y0066975D01*
X0192307Y0081361D02*
X0184737Y0081361D01*
X0182634Y0079763D02*
X0190258Y0079763D01*
X0183041Y0074967D02*
X0179959Y0074967D01*
X0165628Y0087755D02*
X0157726Y0087755D01*
X0157887Y0089354D02*
X0165506Y0089354D01*
X0161791Y0090952D02*
X0157894Y0090952D01*
X0157805Y0092551D02*
X0160169Y0092551D01*
X0159600Y0094149D02*
X0157832Y0094149D01*
X0157894Y0095748D02*
X0159630Y0095748D01*
X0160324Y0097346D02*
X0157860Y0097346D01*
X0157780Y0098945D02*
X0158739Y0098945D01*
X0158739Y0100543D02*
X0157780Y0100543D01*
X0175073Y0114930D02*
X0175838Y0114930D01*
X0178467Y0137309D02*
X0182379Y0137309D01*
X0177701Y0138908D02*
X0191981Y0138908D01*
X0151264Y0137309D02*
X0151264Y0137309D01*
X0151264Y0135800D02*
X0151264Y0135800D01*
X0151264Y0135711D02*
X0151264Y0135711D01*
X0151264Y0134112D02*
X0151264Y0134112D01*
X0151264Y0132514D02*
X0151264Y0132514D01*
X0151264Y0130915D02*
X0151264Y0130915D01*
X0151264Y0130800D02*
X0151264Y0130800D01*
X0151264Y0129317D02*
X0151264Y0129317D01*
X0151264Y0127718D02*
X0151264Y0127718D01*
X0151264Y0126120D02*
X0151264Y0126120D01*
X0151264Y0125800D02*
X0151264Y0125800D01*
X0096800Y0176300D02*
X0094300Y0178800D01*
X0057000Y0178800D01*
X0052000Y0186300D02*
X0043512Y0186300D01*
X0062000Y0186300D02*
X0070154Y0186300D01*
X0089296Y0186863D02*
X0091700Y0186863D01*
X0091700Y0185265D02*
X0089292Y0185265D01*
X0089288Y0183666D02*
X0091700Y0183666D01*
X0092554Y0182068D02*
X0089285Y0182068D01*
X0070154Y0167800D02*
X0062000Y0167800D01*
X0052000Y0167800D02*
X0043512Y0167800D01*
D35*
X0074000Y0159800D03*
X0079000Y0159800D03*
X0086500Y0152300D03*
X0096500Y0157300D03*
X0084000Y0129800D03*
X0076500Y0122300D03*
X0071500Y0119800D03*
X0066500Y0137300D03*
X0091500Y0102300D03*
X0091500Y0097300D03*
X0089000Y0087300D03*
X0094000Y0087300D03*
X0071500Y0077300D03*
X0066500Y0077300D03*
X0054000Y0097300D03*
X0109000Y0114800D03*
X0144000Y0114800D03*
X0149000Y0114800D03*
X0164000Y0094800D03*
X0194000Y0077300D03*
X0134000Y0162300D03*
X0139000Y0169800D03*
X0139000Y0194800D03*
X0139000Y0219800D03*
X0101500Y0234800D03*
X0099000Y0249800D03*
X0081500Y0237300D03*
X0086500Y0212300D03*
X0084000Y0207300D03*
X0069000Y0212300D03*
X0054000Y0199800D03*
D36*
X0183500Y0213143D02*
X0183657Y0213300D01*
X0198500Y0213300D01*
X0198500Y0253143D01*
X0183500Y0253143D01*
X0198500Y0213300D02*
X0198500Y0178300D01*
X0193343Y0173143D01*
X0183500Y0173143D01*
D37*
X0074260Y0103681D02*
X0072641Y0105300D01*
X0067846Y0105300D01*
X0061154Y0105300D02*
X0061154Y0113300D01*
X0055846Y0113300D01*
X0057000Y0114454D01*
X0057000Y0121300D01*
X0032488Y0128800D02*
X0032488Y0167800D01*
X0032488Y0186300D01*
X0032488Y0222300D01*
X0032488Y0240800D01*
D38*
X0158736Y0240800D02*
X0158736Y0235800D01*
X0158736Y0233457D01*
X0158736Y0230800D01*
X0158736Y0233457D02*
X0183500Y0233457D01*
X0158736Y0210800D02*
X0158736Y0205800D01*
X0158736Y0200800D01*
X0158800Y0200800D01*
X0158800Y0190800D01*
D39*
X0158800Y0178300D02*
X0163500Y0178300D01*
X0178657Y0193457D01*
X0183500Y0193457D01*
M02*
