<?xml version="1.0" encoding="UTF-8" standalone="no"?>
<!DOCTYPE svg PUBLIC "-//W3C//DTD SVG 1.1//EN"
 "http://www.w3.org/Graphics/SVG/1.1/DTD/svg11.dtd">
<!-- Generated by graphviz version 2.38.0 (20140413.2041)
 -->
<!-- Title: G Pages: 1 -->
<svg width="146pt" height="118pt"
 viewBox="0.00 0.00 145.50 118.00" xmlns="http://www.w3.org/2000/svg" xmlns:xlink="http://www.w3.org/1999/xlink">
<g id="graph0" class="graph" transform="scale(1 1) rotate(0) translate(4 114)">
<title>G</title>
<polygon fill="white" stroke="none" points="-4,4 -4,-114 141.5,-114 141.5,4 -4,4"/>
<!-- node0 -->
<g id="node1" class="node"><title>node0</title>
<polygon fill="none" stroke="black" points="0,-73.5 0,-109.5 54,-109.5 54,-73.5 0,-73.5"/>
<text text-anchor="middle" x="27" y="-87.8" font-family="Times,serif" font-size="14.00">node0</text>
</g>
<!-- node1 -->
<g id="node2" class="node"><title>node1</title>
<polygon fill="none" stroke="black" points="72.5,-73.5 72.5,-109.5 137.5,-109.5 137.5,-73.5 72.5,-73.5"/>
<text text-anchor="middle" x="82.5" y="-87.8" font-family="Times,serif" font-size="14.00"> </text>
<polyline fill="none" stroke="black" points="92.5,-73.5 92.5,-109.5 "/>
<text text-anchor="middle" x="105" y="-87.8" font-family="Times,serif" font-size="14.00">E</text>
<polyline fill="none" stroke="black" points="117.5,-73.5 117.5,-109.5 "/>
<text text-anchor="middle" x="127.5" y="-87.8" font-family="Times,serif" font-size="14.00"> </text>
</g>
<!-- node0&#45;&gt;node1 -->
<g id="edge1" class="edge"><title>node0:f0&#45;&gt;node1:f1</title>
<path fill="none" stroke="black" d="M54.2617,-91.5C58.5804,-91.5 63.1141,-91.5 67.6256,-91.5"/>
<polygon fill="black" stroke="black" points="68,-95.0001 78,-91.5 68,-88.0001 68,-95.0001"/>
</g>
<!-- node2 -->
<g id="node3" class="node"><title>node2</title>
<polygon fill="none" stroke="black" points="0,-0.5 0,-36.5 54,-36.5 54,-0.5 0,-0.5"/>
<text text-anchor="middle" x="27" y="-14.8" font-family="Times,serif" font-size="14.00">node2</text>
</g>
<!-- node0&#45;&gt;node2 -->
<g id="edge2" class="edge"><title>node0:f2&#45;&gt;node2:f1</title>
<path fill="none" stroke="black" d="M27,-73.4551C27,-65.3828 27,-55.6764 27,-46.6817"/>
<polygon fill="black" stroke="black" points="30.5001,-46.5903 27,-36.5904 23.5001,-46.5904 30.5001,-46.5903"/>
</g>
</g>
</svg>
